<svg width="25" height="24" viewBox="0 0 25 24" fill="none" xmlns="http://www.w3.org/2000/svg">
<path d="M22 6.72998C21.98 6.72998 21.95 6.72998 21.92 6.72998C16.63 6.19998 11.35 5.99998 6.11998 6.52998L4.07998 6.72998C3.65998 6.76998 3.28998 6.46998 3.24998 6.04998C3.20998 5.62998 3.50998 5.26998 3.91998 5.22998L5.95998 5.02998C11.28 4.48998 16.67 4.69998 22.07 5.22998C22.48 5.26998 22.78 5.63998 22.74 6.04998C22.71 6.43998 22.38 6.72998 22 6.72998Z" fill="#920011"/>
<path d="M9.50001 5.72C9.46001 5.72 9.42001 5.72 9.37001 5.71C8.97001 5.64 8.69001 5.25 8.76001 4.85L8.98001 3.54C9.14001 2.58 9.36001 1.25 11.69 1.25H14.31C16.65 1.25 16.87 2.63 17.02 3.55L17.24 4.85C17.31 5.26 17.03 5.65 16.63 5.71C16.22 5.78 15.83 5.5 15.77 5.1L15.55 3.8C15.41 2.93 15.38 2.76 14.32 2.76H11.7C10.64 2.76 10.62 2.9 10.47 3.79L10.24 5.09C10.18 5.46 9.86001 5.72 9.50001 5.72Z" fill="#920011"/>
<path d="M16.21 22.75H9.79002C6.30002 22.75 6.16002 20.82 6.05002 19.26L5.40002 9.18995C5.37002 8.77995 5.69002 8.41995 6.10002 8.38995C6.52002 8.36995 6.87002 8.67995 6.90002 9.08995L7.55002 19.16C7.66002 20.68 7.70002 21.25 9.79002 21.25H16.21C18.31 21.25 18.35 20.68 18.45 19.16L19.1 9.08995C19.13 8.67995 19.49 8.36995 19.9 8.38995C20.31 8.41995 20.63 8.76995 20.6 9.18995L19.95 19.26C19.84 20.82 19.7 22.75 16.21 22.75Z" fill="#920011"/>
<path d="M14.66 17.25H11.33C10.92 17.25 10.58 16.91 10.58 16.5C10.58 16.09 10.92 15.75 11.33 15.75H14.66C15.07 15.75 15.41 16.09 15.41 16.5C15.41 16.91 15.07 17.25 14.66 17.25Z" fill="#920011"/>
<path d="M15.5 13.25H10.5C10.09 13.25 9.75 12.91 9.75 12.5C9.75 12.09 10.09 11.75 10.5 11.75H15.5C15.91 11.75 16.25 12.09 16.25 12.5C16.25 12.91 15.91 13.25 15.5 13.25Z" fill="#920011"/>
</svg>
