<svg width="27" height="25" viewBox="0 0 27 25" fill="none" xmlns="http://www.w3.org/2000/svg">
<path d="M19.7725 23.25H7.22749C4.25916 23.25 1.85416 21.02 1.85416 18.28V10.87C1.85416 9.50997 2.76416 7.79997 3.93416 6.95997L9.77332 2.75997C11.5283 1.49997 14.3342 1.43997 16.1542 2.61997L22.8492 6.94997C24.1383 7.77997 25.1458 9.55997 25.1458 11.01V18.29C25.1458 21.02 22.7408 23.25 19.7725 23.25ZM10.77 3.93997L4.93082 8.13997C4.16166 8.69997 3.47916 9.96997 3.47916 10.87V18.28C3.47916 20.19 5.15832 21.75 7.22749 21.75H19.7725C21.8417 21.75 23.5208 20.2 23.5208 18.29V11.01C23.5208 10.05 22.7733 8.71997 21.9175 8.17997L15.2225 3.84997C13.9875 3.04997 11.9508 3.08997 10.77 3.93997Z" fill="#1A1A1A"/>
<path d="M13.5 19.25C13.0558 19.25 12.6875 18.91 12.6875 18.5V15.5C12.6875 15.09 13.0558 14.75 13.5 14.75C13.9442 14.75 14.3125 15.09 14.3125 15.5V18.5C14.3125 18.91 13.9442 19.25 13.5 19.25Z" fill="#1A1A1A"/>
</svg>
