<svg width="177" height="42" viewBox="0 0 177 42" fill="none" xmlns="http://www.w3.org/2000/svg">
<g clip-path="url(#clip0_920_5081)">
<path d="M44.4886 22.6155V6.78472H47.8524V22.6155H44.4886ZM46.0359 16.3284V13.411H54.1538V16.3284H46.0359ZM46.0359 9.83779V6.78472H55.0958V9.83779H46.0359ZM63.5066 22.8416C62.5199 22.8416 61.6304 22.5703 60.838 22.0275C60.0457 21.4847 59.4178 20.7459 58.9543 19.8112C58.4909 18.8764 58.2591 17.8059 58.2591 16.5998C58.2591 15.3937 58.4909 14.3307 58.9543 13.411C59.4327 12.4763 60.0756 11.745 60.8829 11.2173C61.6902 10.6746 62.6096 10.4032 63.6412 10.4032C64.2242 10.4032 64.755 10.4936 65.2334 10.6746C65.7267 10.8404 66.1528 11.0741 66.5116 11.3756C66.8854 11.6772 67.1994 12.024 67.4535 12.4159C67.7077 12.8079 67.8871 13.2301 67.9917 13.6824L67.3189 13.5693V10.6519H70.4809V22.6155H67.2741V19.7433L67.9917 19.6755C67.8721 20.0977 67.6777 20.4972 67.4086 20.8741C67.1395 21.2511 66.8032 21.5903 66.3995 21.8918C66.0108 22.1783 65.5698 22.4119 65.0764 22.5929C64.5831 22.7587 64.0598 22.8416 63.5066 22.8416ZM64.3811 20.0599C64.9792 20.0599 65.5025 19.9167 65.951 19.6303C66.3995 19.3438 66.7433 18.9443 66.9825 18.4316C67.2367 17.904 67.3638 17.2934 67.3638 16.5998C67.3638 15.9213 67.2367 15.3258 66.9825 14.8132C66.7433 14.3005 66.3995 13.9011 65.951 13.6146C65.5025 13.3131 64.9792 13.1623 64.3811 13.1623C63.7981 13.1623 63.2823 13.3131 62.8338 13.6146C62.4003 13.9011 62.0565 14.3005 61.8023 14.8132C61.5482 15.3258 61.421 15.9213 61.421 16.5998C61.421 17.2934 61.5482 17.904 61.8023 18.4316C62.0565 18.9443 62.4003 19.3438 62.8338 19.6303C63.2823 19.9167 63.7981 20.0599 64.3811 20.0599ZM75.2529 22.6155V10.6519H78.3251L78.3924 12.9361L77.9216 13.0266C78.086 12.6346 78.3027 12.2803 78.5718 11.9636C78.8409 11.647 79.1549 11.3756 79.5138 11.1495C79.8875 10.9233 80.2763 10.7499 80.68 10.6293C81.0836 10.4936 81.4873 10.4258 81.8909 10.4258C82.5036 10.4258 83.057 10.5238 83.5504 10.7198C84.0438 10.9158 84.4626 11.2248 84.8062 11.647C85.1498 12.0541 85.4189 12.5969 85.6135 13.2753L85.1202 13.2301L85.2771 12.8683C85.4718 12.5064 85.7185 12.1823 86.0172 11.8958C86.3159 11.5943 86.6523 11.3379 87.0263 11.1269C87.4004 10.9007 87.7888 10.7273 88.1924 10.6067C88.5961 10.4861 88.9925 10.4258 89.381 10.4258C90.3076 10.4258 91.0781 10.6142 91.6908 10.9912C92.3035 11.353 92.76 11.9033 93.0587 12.6421C93.3727 13.3809 93.5297 14.2855 93.5297 15.3559V22.6155H90.3453V15.5821C90.3453 15.0393 90.2708 14.5945 90.121 14.2478C89.9713 13.9011 89.755 13.6447 89.4707 13.4789C89.1864 13.2979 88.8204 13.2075 88.3718 13.2075C88.0283 13.2075 87.7063 13.2678 87.4076 13.3884C87.1232 13.494 86.8694 13.6523 86.6451 13.8633C86.4361 14.0594 86.2711 14.293 86.1517 14.5644C86.0324 14.8358 85.9723 15.1373 85.9723 15.469V22.6155H82.7879V15.5595C82.7879 15.0619 82.7054 14.6398 82.5413 14.293C82.3915 13.9312 82.1752 13.6598 81.8909 13.4789C81.6066 13.2979 81.2558 13.2075 80.8369 13.2075C80.4933 13.2075 80.1714 13.2678 79.8725 13.3884C79.5884 13.494 79.3418 13.6523 79.1325 13.8633C78.9233 14.0594 78.7513 14.293 78.6167 14.5644C78.4972 14.8358 78.4373 15.1298 78.4373 15.4464V22.6155H75.2529ZM98.4328 22.6155V10.6519H101.617V22.6155H98.4328ZM100.003 8.18687C99.3899 8.18687 98.911 8.0361 98.5674 7.73456C98.2238 7.43303 98.0516 7.00333 98.0516 6.44549C98.0516 5.93287 98.2238 5.51826 98.5674 5.20164C98.9262 4.86995 99.4043 4.7041 100.003 4.7041C100.615 4.7041 101.094 4.86241 101.438 5.17902C101.781 5.48056 101.954 5.90272 101.954 6.44549C101.954 6.97318 101.774 7.39533 101.415 7.71195C101.072 8.02856 100.601 8.18687 100.003 8.18687ZM106.643 22.6155V5.8801H109.827V22.6155H106.643ZM115.992 27.817L118.593 21.6656L118.638 23.5201L112.852 10.6519H116.463L119.356 17.5496C119.475 17.8059 119.587 18.1075 119.692 18.4543C119.811 18.786 119.908 19.1101 119.984 19.4267L119.445 19.6529C119.535 19.3966 119.639 19.1026 119.759 18.7709C119.879 18.4392 119.998 18.0849 120.118 17.7079L122.607 10.6519H126.24L121.262 22.6155L119.221 27.817H115.992ZM136.956 22.8416C135.805 22.8416 134.743 22.6381 133.771 22.231C132.8 21.8239 131.947 21.2586 131.215 20.5349C130.497 19.7961 129.944 18.9292 129.555 17.9341C129.167 16.9239 128.972 15.8309 128.972 14.6549C128.972 13.4638 129.167 12.3782 129.555 11.3983C129.944 10.4032 130.497 9.53628 131.215 8.79749C131.947 8.05871 132.8 7.48579 133.771 7.07872C134.743 6.67164 135.805 6.4681 136.956 6.4681C138.122 6.4681 139.184 6.67164 140.14 7.07872C141.112 7.48579 141.956 8.05871 142.674 8.79749C143.407 9.53628 143.967 10.4032 144.356 11.3983C144.745 12.3933 144.939 13.4789 144.939 14.6549C144.939 15.8309 144.745 16.9164 144.356 17.9115C143.967 18.9066 143.407 19.7735 142.674 20.5123C141.956 21.2511 141.112 21.8239 140.14 22.231C139.184 22.6381 138.122 22.8416 136.956 22.8416ZM136.956 19.6303C137.614 19.6303 138.219 19.5097 138.772 19.2684C139.341 19.0272 139.826 18.6804 140.23 18.2281C140.633 17.7758 140.947 17.2481 141.172 16.645C141.411 16.0419 141.53 15.3786 141.53 14.6549C141.53 13.9312 141.411 13.2678 141.172 12.6647C140.947 12.0616 140.633 11.5415 140.23 11.1043C139.826 10.6519 139.341 10.3052 138.772 10.0639C138.219 9.80767 137.614 9.67949 136.956 9.67949C136.298 9.67949 135.693 9.80767 135.139 10.0639C134.586 10.3052 134.1 10.6519 133.681 11.1043C133.263 11.5415 132.941 12.0616 132.717 12.6647C132.508 13.2678 132.403 13.9312 132.403 14.6549C132.403 15.3786 132.508 16.0419 132.717 16.645C132.941 17.2481 133.263 17.7758 133.681 18.2281C134.1 18.6804 134.586 19.0272 135.139 19.2684C135.693 19.5097 136.298 19.6303 136.956 19.6303ZM149.137 22.6155V10.6519H152.187L152.277 13.0944L151.649 13.3658C151.813 12.823 152.105 12.333 152.524 11.8958C152.957 11.4435 153.473 11.0816 154.071 10.8103C154.668 10.5389 155.296 10.4032 155.955 10.4032C156.852 10.4032 157.599 10.5841 158.197 10.9459C158.81 11.3078 159.266 11.8581 159.565 12.5969C159.879 13.3206 160.036 14.2177 160.036 15.2881V22.6155H156.852V15.5369C156.852 14.9941 156.776 14.5418 156.627 14.1799C156.478 13.8181 156.246 13.5542 155.932 13.3884C155.633 13.2075 155.259 13.1321 154.811 13.1623C154.452 13.1623 154.116 13.2226 153.802 13.3432C153.502 13.4487 153.241 13.6071 153.017 13.8181C152.807 14.0292 152.636 14.2704 152.501 14.5418C152.381 14.8132 152.322 15.1072 152.322 15.4238V22.6155H150.752C150.408 22.6155 150.102 22.6155 149.832 22.6155C149.563 22.6155 149.331 22.6155 149.137 22.6155ZM170.318 22.8416C169.032 22.8416 167.911 22.5778 166.954 22.0501C165.997 21.5224 165.25 20.7987 164.712 19.879C164.174 18.9593 163.904 17.904 163.904 16.7129C163.904 15.7932 164.053 14.9489 164.353 14.1799C164.652 13.411 165.071 12.7477 165.609 12.1898C166.147 11.6169 166.782 11.1796 167.515 10.8781C168.262 10.5615 169.069 10.4032 169.937 10.4032C170.744 10.4032 171.491 10.554 172.179 10.8555C172.867 11.142 173.458 11.5566 173.951 12.0993C174.459 12.627 174.848 13.2527 175.117 13.9764C175.386 14.7001 175.506 15.4916 175.476 16.351L175.453 17.3461H165.923L165.407 15.3786H172.83L172.471 15.7856V15.2881C172.44 14.881 172.306 14.5117 172.067 14.1799C171.843 13.8482 171.551 13.5919 171.193 13.411C170.834 13.2301 170.43 13.1396 169.982 13.1396C169.323 13.1396 168.763 13.2678 168.3 13.5241C167.851 13.7804 167.507 14.1573 167.268 14.6549C167.029 15.1524 166.909 15.7555 166.909 16.4641C166.909 17.1878 167.058 17.8135 167.358 18.3412C167.672 18.8688 168.105 19.2835 168.659 19.585C169.226 19.8715 169.892 20.0147 170.654 20.0147C171.177 20.0147 171.656 19.9318 172.09 19.7659C172.523 19.6001 172.987 19.3136 173.48 18.9066L175.005 21.055C174.571 21.447 174.093 21.7787 173.57 22.0501C173.046 22.3064 172.508 22.5024 171.955 22.6381C171.402 22.7738 170.856 22.8416 170.318 22.8416Z" fill="#1A1A1A"/>
<path d="M50.7157 37.9036C50.7755 37.9036 50.8278 37.9281 50.8727 37.9771L51.3044 38.4464C50.9754 38.8308 50.5755 39.1305 50.1046 39.3453C49.6374 39.5602 49.0712 39.6676 48.4059 39.6676C47.8303 39.6676 47.307 39.5677 46.8361 39.3679C46.3652 39.1644 45.9634 38.8817 45.6308 38.5199C45.2981 38.1542 45.0402 37.717 44.8571 37.2082C44.6739 36.6993 44.5824 36.1396 44.5824 35.529C44.5824 34.9184 44.6777 34.3586 44.8683 33.8498C45.0589 33.3409 45.3262 32.9037 45.67 32.5381C46.0176 32.1725 46.4325 31.8898 46.9146 31.69C47.3967 31.4865 47.9293 31.3847 48.5124 31.3847C49.0843 31.3847 49.5888 31.477 50.0261 31.6618C50.4634 31.8465 50.8484 32.0971 51.181 32.4137L50.8222 32.9169C50.7998 32.9546 50.7699 32.9866 50.7325 33.013C50.6989 33.0356 50.6522 33.0469 50.5924 33.0469C50.5251 33.0469 50.4428 33.0112 50.3457 32.9395C50.2485 32.8642 50.1214 32.7812 49.9644 32.6908C49.8075 32.6003 49.6112 32.5193 49.3758 32.4476C49.1403 32.3723 48.8506 32.3346 48.5068 32.3346C48.0919 32.3346 47.7125 32.4081 47.3687 32.5551C47.0249 32.6983 46.7277 32.9075 46.4773 33.1826C46.2306 33.4578 46.0382 33.7933 45.8999 34.189C45.7615 34.5848 45.6924 35.0314 45.6924 35.529C45.6924 36.034 45.7635 36.4845 45.9055 36.8803C46.0512 37.276 46.2474 37.6115 46.4941 37.8866C46.7446 38.158 47.0379 38.3654 47.3743 38.5086C47.7145 38.6518 48.0807 38.7234 48.4732 38.7234C48.7124 38.7234 48.9273 38.7102 49.1179 38.6838C49.3123 38.6537 49.4898 38.6085 49.6505 38.5481C49.8149 38.4878 49.9663 38.4124 50.1046 38.322C50.2466 38.2277 50.3868 38.1166 50.5251 37.9884C50.5886 37.9319 50.6522 37.9036 50.7157 37.9036ZM56.2962 33.7593C56.7111 33.7593 57.0849 33.829 57.4175 33.9685C57.7502 34.108 58.0342 34.3059 58.2697 34.5622C58.5051 34.8185 58.6845 35.1294 58.8079 35.4951C58.935 35.8569 58.9985 36.2621 58.9985 36.7106C58.9985 37.1629 58.935 37.57 58.8079 37.9319C58.6845 38.2937 58.5051 38.6028 58.2697 38.8591C58.0342 39.1154 57.7502 39.3133 57.4175 39.4528C57.0849 39.5884 56.7111 39.6563 56.2962 39.6563C55.8777 39.6563 55.5001 39.5884 55.1638 39.4528C54.8311 39.3133 54.5471 39.1154 54.3116 38.8591C54.0761 38.6028 53.8949 38.2937 53.7678 37.9319C53.6444 37.57 53.5828 37.1629 53.5828 36.7106C53.5828 36.2621 53.6444 35.8569 53.7678 35.4951C53.8949 35.1294 54.0761 34.8185 54.3116 34.5622C54.5471 34.3059 54.8311 34.108 55.1638 33.9685C55.5001 33.829 55.8777 33.7593 56.2962 33.7593ZM56.2962 38.8704C56.8569 38.8704 57.2755 38.682 57.5521 38.305C57.8287 37.9244 57.9669 37.3948 57.9669 36.7163C57.9669 36.034 57.8287 35.5026 57.5521 35.1219C57.2755 34.7412 56.8569 34.5509 56.2962 34.5509C56.0122 34.5509 55.7636 34.5999 55.5506 34.6979C55.3413 34.7958 55.1657 34.9372 55.0236 35.1219C54.8854 35.3066 54.7807 35.5346 54.7096 35.806C54.6424 36.0736 54.6087 36.3771 54.6087 36.7163C54.6087 37.3948 54.7471 37.9244 55.0236 38.305C55.3039 38.682 55.7282 38.8704 56.2962 38.8704ZM62.888 34.6809C63.0114 34.5414 63.1421 34.4152 63.2805 34.3021C63.4188 34.189 63.5645 34.0929 63.7177 34.0138C63.8747 33.9308 64.0392 33.8686 64.2111 33.8272C64.3867 33.7819 64.5755 33.7593 64.7773 33.7593C65.0875 33.7593 65.3604 33.8121 65.5959 33.9176C65.8351 34.0194 66.0332 34.1664 66.1901 34.3586C66.3509 34.5471 66.4723 34.7752 66.5546 35.0428C66.6368 35.3103 66.6779 35.6063 66.6779 35.9304V39.5771H65.6744V35.9304C65.6744 35.4969 65.5753 35.1615 65.3772 34.924C65.1828 34.6828 64.8857 34.5622 64.4858 34.5622C64.1905 34.5622 63.914 34.6338 63.6561 34.777C63.402 34.9202 63.1665 35.1144 62.9497 35.3594V39.5771H61.9461V33.8498H62.546C62.688 33.8498 62.7759 33.9195 62.8095 34.059L62.888 34.6809ZM73.6815 36.0887C73.6815 35.8551 73.6479 35.6421 73.5806 35.4498C73.5171 35.2538 73.4218 35.0861 73.2947 34.9466C73.1713 34.8034 73.0199 34.6941 72.8405 34.6187C72.6611 34.5396 72.4575 34.5 72.2294 34.5C71.7511 34.5 71.3717 34.6413 71.0914 34.924C70.8148 35.2029 70.6429 35.5912 70.5756 36.0887H73.6815ZM74.4888 38.7743C74.3655 38.9251 74.2178 39.057 74.0459 39.1701C73.874 39.2793 73.689 39.3698 73.4909 39.4414C73.2966 39.5131 73.0947 39.5658 72.8854 39.5998C72.6761 39.6375 72.4687 39.6563 72.2631 39.6563C71.8706 39.6563 71.5081 39.5903 71.1755 39.4584C70.8466 39.3227 70.5607 39.1267 70.3177 38.8704C70.0785 38.6103 69.8916 38.2899 69.7571 37.9093C69.6225 37.5286 69.5552 37.0913 69.5552 36.5976C69.5552 36.198 69.6151 35.8248 69.7346 35.4781C69.858 35.1314 70.0337 34.8317 70.2616 34.5791C70.4896 34.3229 70.7681 34.123 71.097 33.9798C71.4259 33.8328 71.7959 33.7593 72.207 33.7593C72.5472 33.7593 72.8611 33.8177 73.1489 33.9346C73.4404 34.0477 73.6909 34.2135 73.9001 34.4321C74.1132 34.647 74.2795 34.9146 74.3991 35.235C74.5188 35.5516 74.5785 35.9134 74.5785 36.3205C74.5785 36.4788 74.5617 36.5844 74.528 36.6371C74.4944 36.6899 74.4309 36.7163 74.3374 36.7163H70.5419C70.5532 37.0781 70.6018 37.3929 70.6877 37.6605C70.7774 37.9281 70.9007 38.1524 71.0577 38.3333C71.2147 38.5104 71.4016 38.6443 71.6184 38.7347C71.8352 38.8214 72.0781 38.8648 72.3472 38.8648C72.5976 38.8648 72.8125 38.8365 72.9919 38.7799C73.1751 38.7196 73.3321 38.6556 73.4628 38.5877C73.5937 38.5199 73.7021 38.4577 73.788 38.4011C73.8777 38.3408 73.9544 38.3107 74.0179 38.3107C74.1001 38.3107 74.1636 38.3427 74.2085 38.4068L74.4888 38.7743ZM81.4384 34.8675C81.4088 34.9089 81.3791 34.941 81.3487 34.9636C81.3191 34.9862 81.2782 34.9975 81.2254 34.9975C81.1693 34.9975 81.1076 34.9749 81.0404 34.9297C80.9731 34.8806 80.889 34.8279 80.7881 34.7714C80.6912 34.7148 80.5694 34.6639 80.4237 34.6187C80.2819 34.5697 80.1065 34.5452 79.8969 34.5452C79.6166 34.5452 79.3699 34.5961 79.1569 34.6979C78.9438 34.7958 78.7644 34.9391 78.6187 35.1276C78.4767 35.316 78.3683 35.5441 78.2935 35.8117C78.2225 36.0793 78.187 36.3789 78.187 36.7106C78.187 37.0574 78.2262 37.3665 78.3047 37.6379C78.3832 37.9055 78.4935 38.1316 78.6355 38.3163C78.7812 38.4973 78.955 38.6367 79.1569 38.7347C79.3625 38.829 79.5923 38.8761 79.8465 38.8761C80.0894 38.8761 80.2891 38.8478 80.4461 38.7913C80.6031 38.7309 80.732 38.665 80.8329 38.5934C80.9378 38.5217 81.0235 38.4577 81.0908 38.4011C81.1621 38.3408 81.231 38.3107 81.2983 38.3107C81.3807 38.3107 81.444 38.3427 81.4889 38.4068L81.7692 38.7743C81.6458 38.9288 81.5057 39.0608 81.3487 39.1701C81.1917 39.2793 81.0219 39.3717 80.8385 39.4471C80.6591 39.5187 80.4709 39.5715 80.2723 39.6054C80.0745 39.6393 79.8726 39.6563 79.667 39.6563C79.312 39.6563 78.9812 39.5903 78.6747 39.4584C78.372 39.3265 78.1085 39.1361 77.8842 38.8874C77.66 38.6348 77.4843 38.3258 77.3572 37.9601C77.2302 37.5945 77.1666 37.1781 77.1666 36.7106C77.1666 36.2847 77.2246 35.8908 77.3404 35.529C77.4601 35.1671 77.6319 34.8562 77.8562 34.5961C78.0842 34.3322 78.3627 34.1268 78.6916 33.9798C79.0242 33.8328 79.4055 33.7593 79.8352 33.7593C80.2355 33.7593 80.5863 33.8253 80.889 33.9572C81.1957 34.0854 81.4664 34.2682 81.7019 34.5056L81.4384 34.8675ZM86.2663 39.6676C85.8178 39.6676 85.4718 39.5414 85.2291 39.2888C84.9896 39.0362 84.8703 38.6725 84.8703 38.1976V34.6922H84.1863C84.1262 34.6922 84.0758 34.6753 84.035 34.6413C83.9941 34.6036 83.9733 34.5471 83.9733 34.4717V34.0703L84.9039 33.9516L85.1338 32.1819C85.145 32.1254 85.169 32.0801 85.2067 32.0462C85.2475 32.0085 85.3004 31.9897 85.3636 31.9897H85.8682V33.9629H87.5109V34.6922H85.8682V38.1298C85.8682 38.371 85.9259 38.55 86.042 38.6669C86.1581 38.7837 86.3071 38.8421 86.4905 38.8421C86.5954 38.8421 86.6851 38.829 86.7596 38.8026C86.8381 38.7724 86.9054 38.7404 86.9615 38.7064C87.0175 38.6725 87.064 38.6424 87.1016 38.616C87.1425 38.5859 87.1785 38.5708 87.2081 38.5708C87.2602 38.5708 87.3074 38.6028 87.3483 38.6669L87.6398 39.1474C87.4676 39.3095 87.2602 39.4377 87.0175 39.5319C86.7748 39.6224 86.5242 39.6676 86.2663 39.6676ZM93.3006 36.999C92.8409 37.0141 92.4485 37.0517 92.1233 37.1121C91.8021 37.1686 91.5386 37.244 91.3328 37.3382C91.131 37.4325 90.9836 37.5436 90.8899 37.6718C90.8002 37.8 90.7553 37.9432 90.7553 38.1015C90.7553 38.2523 90.7802 38.3823 90.8282 38.4916C90.8771 38.6009 90.9428 38.6913 91.0244 38.763C91.1109 38.8308 91.2095 38.8817 91.3216 38.9156C91.4377 38.9458 91.5611 38.9609 91.6916 38.9609C91.8678 38.9609 92.028 38.9439 92.1737 38.91C92.3195 38.8723 92.4565 38.8195 92.583 38.7517C92.7144 38.6838 92.8377 38.6028 92.953 38.5086C93.0732 38.4143 93.1885 38.3069 93.3006 38.1863V36.999ZM90.077 34.6583C90.3909 34.353 90.7297 34.125 91.0917 33.9742C91.4545 33.8234 91.8566 33.748 92.2971 33.748C92.615 33.748 92.897 33.8008 93.1436 33.9063C93.3903 34.0119 93.5977 34.1589 93.7659 34.3473C93.9341 34.5358 94.0615 34.7639 94.1472 35.0314C94.2337 35.299 94.2761 35.593 94.2761 35.9134V39.5771H93.8332C93.7363 39.5771 93.6618 39.562 93.609 39.5319C93.5569 39.498 93.5161 39.4339 93.4856 39.3397L93.3735 38.7969C93.2245 38.9364 93.0788 39.0608 92.9362 39.1701C92.7944 39.2756 92.6447 39.3661 92.4877 39.4414C92.3307 39.5131 92.1625 39.5677 91.9831 39.6054C91.8077 39.6468 91.6115 39.6676 91.3945 39.6676C91.1742 39.6676 90.9668 39.6375 90.7722 39.5771C90.5783 39.5131 90.4077 39.4188 90.262 39.2944C90.1202 39.1701 90.0065 39.0136 89.92 38.8252C89.8383 38.6329 89.7967 38.4068 89.7967 38.1467C89.7967 37.9206 89.8583 37.7039 89.9817 37.4965C90.105 37.2855 90.3052 37.0989 90.5815 36.9368C90.8587 36.7747 91.2191 36.6428 91.6636 36.541C92.1089 36.4355 92.6543 36.3752 93.3006 36.3601V35.9134C93.3006 35.4687 93.2053 35.1332 93.0147 34.9071C92.8241 34.6771 92.5462 34.5622 92.1794 34.5622C91.9327 34.5622 91.7252 34.5942 91.557 34.6583C91.3929 34.7186 91.2487 34.7883 91.1254 34.8675C91.006 34.9428 90.9011 35.0126 90.8114 35.0767C90.7257 35.137 90.64 35.1671 90.5535 35.1671C90.4862 35.1671 90.4286 35.1502 90.3797 35.1163C90.3317 35.0785 90.29 35.0333 90.2564 34.9806L90.077 34.6583ZM98.42 34.6809C98.5433 34.5414 98.6747 34.4152 98.8124 34.3021C98.951 34.189 99.0968 34.0929 99.2497 34.0138C99.4067 33.9308 99.5717 33.8686 99.7431 33.8272C99.9193 33.7819 100.108 33.7593 100.309 33.7593C100.62 33.7593 100.892 33.8121 101.128 33.9176C101.367 34.0194 101.565 34.1664 101.722 34.3586C101.883 34.5471 102.005 34.7752 102.087 35.0428C102.169 35.3103 102.21 35.6063 102.21 35.9304V39.5771H101.206V35.9304C101.206 35.4969 101.108 35.1615 100.909 34.924C100.715 34.6828 100.418 34.5622 100.018 34.5622C99.7231 34.5622 99.446 34.6338 99.1881 34.777C98.9342 34.9202 98.6987 35.1144 98.4817 35.3594V39.5771H97.4781V33.8498H98.078C98.2206 33.8498 98.3079 33.9195 98.3415 34.059L98.42 34.6809ZM109.113 35.2124C108.926 34.9598 108.724 34.7845 108.507 34.6866C108.29 34.5848 108.048 34.5339 107.779 34.5339C107.252 34.5339 106.846 34.7243 106.562 35.1049C106.278 35.4856 106.136 36.0284 106.136 36.7333C106.136 37.1064 106.168 37.4268 106.231 37.6944C106.295 37.9583 106.388 38.1768 106.512 38.3503C106.635 38.5199 106.786 38.6443 106.966 38.7234C107.145 38.8026 107.348 38.8421 107.577 38.8421C107.906 38.8421 108.192 38.7668 108.435 38.616C108.681 38.4652 108.907 38.2523 109.113 37.9771V35.2124ZM110.111 31.249V39.5771H109.517C109.375 39.5771 109.285 39.5074 109.247 39.3679L109.158 38.6725C108.915 38.9665 108.638 39.204 108.328 39.3849C108.018 39.5658 107.659 39.6563 107.252 39.6563C106.926 39.6563 106.631 39.5941 106.366 39.4697C106.101 39.3415 105.874 39.155 105.687 38.91C105.501 38.665 105.357 38.3597 105.256 37.9941C105.155 37.6284 105.104 37.2082 105.104 36.7333C105.104 36.3111 105.16 35.9191 105.273 35.5573C105.385 35.1916 105.546 34.875 105.755 34.6074C105.964 34.3398 106.22 34.1306 106.523 33.9798C106.83 33.8253 107.173 33.748 107.554 33.748C107.902 33.748 108.199 33.8084 108.446 33.9289C108.696 34.0458 108.918 34.2098 109.113 34.4208V31.249H110.111ZM115.763 33.7593C116.178 33.7593 116.552 33.829 116.884 33.9685C117.216 34.108 117.501 34.3059 117.736 34.5622C117.972 34.8185 118.151 35.1294 118.274 35.4951C118.402 35.8569 118.465 36.2621 118.465 36.7106C118.465 37.1629 118.402 37.57 118.274 37.9319C118.151 38.2937 117.972 38.6028 117.736 38.8591C117.501 39.1154 117.216 39.3133 116.884 39.4528C116.552 39.5884 116.178 39.6563 115.763 39.6563C115.344 39.6563 114.967 39.5884 114.63 39.4528C114.298 39.3133 114.014 39.1154 113.778 38.8591C113.543 38.6028 113.362 38.2937 113.234 37.9319C113.111 37.57 113.049 37.1629 113.049 36.7106C113.049 36.2621 113.111 35.8569 113.234 35.4951C113.362 35.1294 113.543 34.8185 113.778 34.5622C114.014 34.3059 114.298 34.108 114.63 33.9685C114.967 33.829 115.344 33.7593 115.763 33.7593ZM115.763 38.8704C116.323 38.8704 116.742 38.682 117.019 38.305C117.295 37.9244 117.433 37.3948 117.433 36.7163C117.433 36.034 117.295 35.5026 117.019 35.1219C116.742 34.7412 116.323 34.5509 115.763 34.5509C115.478 34.5509 115.23 34.5999 115.017 34.6979C114.808 34.7958 114.632 34.9372 114.49 35.1219C114.352 35.3066 114.247 35.5346 114.176 35.806C114.109 36.0736 114.075 36.3771 114.075 36.7163C114.075 37.3948 114.214 37.9244 114.49 38.305C114.77 38.682 115.195 38.8704 115.763 38.8704ZM127.286 32.3685V35.2011H130.588V36.0944H127.286V39.5771H126.199V31.4752H131.149V32.3685H127.286ZM136.264 36.999C135.804 37.0141 135.411 37.0517 135.086 37.1121C134.765 37.1686 134.502 37.244 134.296 37.3382C134.094 37.4325 133.947 37.5436 133.853 37.6718C133.763 37.8 133.718 37.9432 133.718 38.1015C133.718 38.2523 133.743 38.3823 133.791 38.4916C133.84 38.6009 133.906 38.6913 133.987 38.763C134.074 38.8308 134.172 38.8817 134.285 38.9156C134.401 38.9458 134.524 38.9609 134.655 38.9609C134.831 38.9609 134.991 38.9439 135.137 38.91C135.282 38.8723 135.419 38.8195 135.546 38.7517C135.677 38.6838 135.801 38.6028 135.916 38.5086C136.036 38.4143 136.151 38.3069 136.264 38.1863V36.999ZM133.04 34.6583C133.354 34.353 133.693 34.125 134.055 33.9742C134.417 33.8234 134.82 33.748 135.26 33.748C135.578 33.748 135.86 33.8008 136.107 33.9063C136.353 34.0119 136.561 34.1589 136.729 34.3473C136.897 34.5358 137.024 34.7639 137.11 35.0314C137.197 35.299 137.239 35.593 137.239 35.9134V39.5771H136.796C136.699 39.5771 136.625 39.562 136.572 39.5319C136.52 39.498 136.479 39.4339 136.449 39.3397L136.336 38.7969C136.187 38.9364 136.042 39.0608 135.899 39.1701C135.757 39.2756 135.608 39.3661 135.451 39.4414C135.294 39.5131 135.125 39.5677 134.946 39.6054C134.771 39.6468 134.574 39.6676 134.357 39.6676C134.137 39.6676 133.93 39.6375 133.735 39.5771C133.541 39.5131 133.371 39.4188 133.225 39.2944C133.083 39.1701 132.969 39.0136 132.883 38.8252C132.801 38.6329 132.76 38.4068 132.76 38.1467C132.76 37.9206 132.821 37.7039 132.945 37.4965C133.068 37.2855 133.268 37.0989 133.544 36.9368C133.822 36.7747 134.182 36.6428 134.627 36.541C135.072 36.4355 135.617 36.3752 136.264 36.3601V35.9134C136.264 35.4687 136.168 35.1332 135.978 34.9071C135.787 34.6771 135.509 34.5622 135.142 34.5622C134.896 34.5622 134.688 34.5942 134.52 34.6583C134.356 34.7186 134.212 34.7883 134.088 34.8675C133.969 34.9428 133.864 35.0126 133.774 35.0767C133.689 35.137 133.603 35.1671 133.516 35.1671C133.449 35.1671 133.392 35.1502 133.343 35.1163C133.295 35.0785 133.253 35.0333 133.219 34.9806L133.04 34.6583ZM140.441 39.5771V33.8498H141.041C141.184 33.8498 141.271 33.9195 141.304 34.059L141.377 34.647C141.587 34.3869 141.823 34.1739 142.084 34.0081C142.346 33.8423 142.648 33.7593 142.992 33.7593C143.373 33.7593 143.682 33.8668 143.917 34.0816C144.156 34.2964 144.329 34.5866 144.433 34.9523C144.515 34.745 144.62 34.566 144.747 34.4152C144.878 34.2644 145.024 34.14 145.184 34.042C145.345 33.9441 145.515 33.8724 145.694 33.8272C145.878 33.7819 146.063 33.7593 146.249 33.7593C146.549 33.7593 146.814 33.8084 147.045 33.9063C147.281 34.0006 147.479 34.14 147.64 34.3247C147.805 34.5094 147.93 34.7374 148.015 35.0088C148.102 35.2764 148.144 35.5837 148.144 35.9304V39.5771H147.141V35.9304C147.141 35.4819 147.044 35.1427 146.849 34.9127C146.655 34.679 146.375 34.5622 146.008 34.5622C145.844 34.5622 145.687 34.5923 145.537 34.6526C145.391 34.7092 145.263 34.794 145.15 34.9071C145.038 35.0201 144.949 35.1633 144.881 35.3368C144.818 35.5064 144.786 35.7043 144.786 35.9304V39.5771H143.782V35.9304C143.782 35.4706 143.691 35.1276 143.508 34.9014C143.325 34.6753 143.058 34.5622 142.706 34.5622C142.459 34.5622 142.232 34.63 142.022 34.7657C141.813 34.8976 141.621 35.0785 141.445 35.3085V39.5771H140.441ZM152.397 33.8498V39.5771H151.399V33.8498H152.397ZM152.61 32.0519C152.61 32.1498 152.589 32.2422 152.548 32.3289C152.511 32.4119 152.459 32.4872 152.391 32.5551C152.328 32.6191 152.251 32.67 152.162 32.7077C152.076 32.7454 151.984 32.7643 151.887 32.7643C151.79 32.7643 151.698 32.7454 151.612 32.7077C151.53 32.67 151.457 32.6191 151.393 32.5551C151.33 32.4872 151.28 32.4119 151.242 32.3289C151.204 32.2422 151.186 32.1498 151.186 32.0519C151.186 31.9539 151.204 31.8615 151.242 31.7748C151.28 31.6844 151.33 31.6071 151.393 31.543C151.457 31.4752 151.53 31.4224 151.612 31.3847C151.698 31.347 151.79 31.3282 151.887 31.3282C151.984 31.3282 152.076 31.347 152.162 31.3847C152.251 31.4224 152.328 31.4752 152.391 31.543C152.459 31.6071 152.511 31.6844 152.548 31.7748C152.589 31.8615 152.61 31.9539 152.61 32.0519ZM156.75 31.249V39.5771H155.752V31.249H156.75ZM161.104 33.8498V39.5771H160.107V33.8498H161.104ZM161.317 32.0519C161.317 32.1498 161.297 32.2422 161.256 32.3289C161.218 32.4119 161.166 32.4872 161.099 32.5551C161.036 32.6191 160.959 32.67 160.869 32.7077C160.783 32.7454 160.691 32.7643 160.594 32.7643C160.497 32.7643 160.405 32.7454 160.32 32.7077C160.237 32.67 160.164 32.6191 160.101 32.5551C160.038 32.4872 159.987 32.4119 159.95 32.3289C159.912 32.2422 159.893 32.1498 159.893 32.0519C159.893 31.9539 159.912 31.8615 159.95 31.7748C159.987 31.6844 160.038 31.6071 160.101 31.543C160.164 31.4752 160.237 31.4224 160.32 31.3847C160.405 31.347 160.497 31.3282 160.594 31.3282C160.691 31.3282 160.783 31.347 160.869 31.3847C160.959 31.4224 161.036 31.4752 161.099 31.543C161.166 31.6071 161.218 31.6844 161.256 31.7748C161.297 31.8615 161.317 31.9539 161.317 32.0519ZM167.504 36.999C167.044 37.0141 166.651 37.0517 166.326 37.1121C166.005 37.1686 165.742 37.244 165.536 37.3382C165.334 37.4325 165.187 37.5436 165.093 37.6718C165.003 37.8 164.958 37.9432 164.958 38.1015C164.958 38.2523 164.983 38.3823 165.031 38.4916C165.08 38.6009 165.146 38.6913 165.227 38.763C165.314 38.8308 165.412 38.8817 165.525 38.9156C165.641 38.9458 165.764 38.9609 165.895 38.9609C166.071 38.9609 166.231 38.9439 166.377 38.91C166.523 38.8723 166.66 38.8195 166.786 38.7517C166.917 38.6838 167.041 38.6028 167.156 38.5086C167.276 38.4143 167.392 38.3069 167.504 38.1863V36.999ZM164.28 34.6583C164.594 34.353 164.933 34.125 165.295 33.9742C165.658 33.8234 166.06 33.748 166.5 33.748C166.818 33.748 167.1 33.8008 167.347 33.9063C167.593 34.0119 167.801 34.1589 167.969 34.3473C168.137 34.5358 168.265 34.7639 168.35 35.0314C168.437 35.299 168.479 35.593 168.479 35.9134V39.5771H168.036C167.939 39.5771 167.865 39.562 167.812 39.5319C167.76 39.498 167.719 39.4339 167.689 39.3397L167.577 38.7969C167.428 38.9364 167.282 39.0608 167.139 39.1701C166.997 39.2756 166.848 39.3661 166.691 39.4414C166.534 39.5131 166.366 39.5677 166.186 39.6054C166.011 39.6468 165.815 39.6676 165.598 39.6676C165.377 39.6676 165.17 39.6375 164.975 39.5771C164.781 39.5131 164.611 39.4188 164.465 39.2944C164.323 39.1701 164.21 39.0136 164.123 38.8252C164.041 38.6329 164 38.4068 164 38.1467C164 37.9206 164.061 37.7039 164.185 37.4965C164.308 37.2855 164.508 37.0989 164.785 36.9368C165.062 36.7747 165.422 36.6428 165.867 36.541C166.312 36.4355 166.857 36.3752 167.504 36.3601V35.9134C167.504 35.4687 167.408 35.1332 167.218 34.9071C167.027 34.6771 166.749 34.5622 166.382 34.5622C166.136 34.5622 165.928 34.5942 165.76 34.6583C165.596 34.7186 165.452 34.7883 165.328 34.8675C165.209 34.9428 165.104 35.0126 165.014 35.0767C164.929 35.137 164.843 35.1671 164.757 35.1671C164.689 35.1671 164.632 35.1502 164.583 35.1163C164.535 35.0785 164.493 35.0333 164.459 34.9806L164.28 34.6583ZM174.989 34.794C174.944 34.8769 174.875 34.9184 174.781 34.9184C174.725 34.9184 174.662 34.8976 174.591 34.8562C174.52 34.8147 174.432 34.7695 174.327 34.7205C174.226 34.6677 174.106 34.6206 173.963 34.5791C173.821 34.5339 173.653 34.5113 173.458 34.5113C173.29 34.5113 173.139 34.5339 173.004 34.5791C172.87 34.6206 172.754 34.6791 172.657 34.7544C172.564 34.8298 172.491 34.9184 172.438 35.0201C172.39 35.1181 172.365 35.2255 172.365 35.3424C172.365 35.4894 172.407 35.6119 172.488 35.7099C172.575 35.8079 172.687 35.8927 172.825 35.9643C172.963 36.036 173.12 36.1 173.296 36.1566C173.472 36.2093 173.651 36.2678 173.834 36.3318C174.021 36.3922 174.202 36.46 174.378 36.5354C174.554 36.6107 174.711 36.705 174.849 36.8181C174.987 36.9311 175.098 37.0706 175.18 37.2364C175.266 37.3986 175.308 37.5945 175.308 37.8244C175.308 38.0883 175.262 38.3333 175.168 38.5594C175.075 38.7818 174.937 38.976 174.753 39.1418C174.571 39.3039 174.347 39.432 174.081 39.5263C173.816 39.6205 173.509 39.6676 173.161 39.6676C172.766 39.6676 172.407 39.6036 172.085 39.4754C171.764 39.3435 171.491 39.1757 171.266 38.9722L171.502 38.5877C171.532 38.5387 171.567 38.501 171.608 38.4746C171.65 38.4482 171.702 38.4351 171.765 38.4351C171.833 38.4351 171.904 38.4615 171.978 38.5142C172.054 38.567 172.143 38.6254 172.247 38.6895C172.356 38.7535 172.487 38.812 172.64 38.8648C172.794 38.9175 172.984 38.9439 173.212 38.9439C173.406 38.9439 173.576 38.9194 173.722 38.8704C173.868 38.8177 173.989 38.7479 174.086 38.6612C174.184 38.5746 174.255 38.4746 174.299 38.3616C174.348 38.2485 174.372 38.1279 174.372 37.9997C174.372 37.8414 174.33 37.7114 174.243 37.6096C174.162 37.504 174.051 37.4155 173.913 37.3439C173.775 37.2685 173.615 37.2044 173.436 37.1516C173.261 37.0951 173.08 37.0367 172.892 36.9764C172.71 36.916 172.528 36.8482 172.348 36.7728C172.173 36.6937 172.016 36.5957 171.877 36.4788C171.74 36.362 171.628 36.2188 171.541 36.0491C171.459 35.8757 171.418 35.6665 171.418 35.4216C171.418 35.2029 171.463 34.9937 171.552 34.794C171.642 34.5904 171.773 34.4133 171.945 34.2625C172.117 34.108 172.328 33.9855 172.578 33.895C172.829 33.8046 173.115 33.7593 173.436 33.7593C173.81 33.7593 174.145 33.8197 174.439 33.9403C174.739 34.0571 174.997 34.2192 175.213 34.4265L174.989 34.794Z" fill="#1A1A1A"/>
<path d="M1.60181 16.0568C1.60181 15.3069 1.94612 14.5993 2.53425 14.1404L18.1519 1.95486C19.0176 1.27937 20.2267 1.27937 21.0925 1.95486L36.7101 14.1404C37.2982 14.5993 37.6425 15.3069 37.6425 16.0568V36.9626C37.6425 38.028 37.2206 39.0497 36.4696 39.8032C35.7187 40.5565 34.7001 40.9797 33.638 40.9797H5.60633C4.54427 40.9797 3.5257 40.5565 2.77471 39.8032C2.02371 39.0497 1.60181 38.028 1.60181 36.9626V16.0568Z" stroke="url(#paint0_linear_920_5081)" stroke-width="2.5" stroke-linecap="round" stroke-linejoin="round"/>
<path d="M28.4461 17.8025C27.9362 17.2663 27.3309 16.841 26.6646 16.5509C25.9983 16.2607 25.2842 16.1113 24.563 16.1113C23.8418 16.1113 23.1277 16.2607 22.4614 16.5509C21.7952 16.841 21.1898 17.2663 20.6799 17.8025L20.4888 18.0035C20.0159 18.5005 19.2278 18.5005 18.755 18.0035L18.5638 17.8025C17.5339 16.72 16.1371 16.1119 14.6808 16.1119C13.2243 16.1119 11.8275 16.72 10.7977 17.8025C9.76784 18.885 9.18927 20.3532 9.18927 21.8841C9.18927 23.4149 9.76784 24.8831 10.7977 25.9656L11.8558 27.0778L18.755 34.3296C19.2278 34.8267 20.0159 34.8267 20.4888 34.3296L27.3879 27.0778L28.4461 25.9656C28.9561 25.4297 29.3608 24.7934 29.6369 24.093C29.9128 23.3928 30.055 22.6421 30.055 21.8841C30.055 21.126 29.9128 20.3754 29.6369 19.675C29.3608 18.9747 28.9561 18.3384 28.4461 17.8025Z" stroke="url(#paint1_linear_920_5081)" stroke-width="2.5" stroke-linecap="round" stroke-linejoin="round"/>
</g>
<defs>
<linearGradient id="paint0_linear_920_5081" x1="19.6222" y1="0.807694" x2="19.6222" y2="40.9797" gradientUnits="userSpaceOnUse">
<stop stop-color="#FF8A00"/>
<stop offset="0.5" stop-color="#B2F28F"/>
<stop offset="1" stop-color="#009DC9"/>
</linearGradient>
<linearGradient id="paint1_linear_920_5081" x1="19.6221" y1="16.1113" x2="19.6221" y2="35.2409" gradientUnits="userSpaceOnUse">
<stop stop-color="#FF8A00"/>
<stop offset="0.5" stop-color="#B2F28F"/>
<stop offset="1" stop-color="#009DC9"/>
</linearGradient>
<clipPath id="clip0_920_5081">
<rect width="177" height="42" fill="white"/>
</clipPath>
</defs>
</svg>
