<svg width="28" height="28" viewBox="0 0 28 28" fill="none" xmlns="http://www.w3.org/2000/svg">
<path d="M2 10.869C2 10.4137 2.22928 9.98414 2.62093 9.70552L13.0209 2.30757C13.5974 1.89748 14.4026 1.89748 14.9791 2.30757L25.3791 9.70552C25.7707 9.98414 26 10.4137 26 10.869V23.5611C26 24.208 25.719 24.8283 25.2189 25.2857C24.7189 25.7431 24.0406 26 23.3333 26H4.66667C3.95942 26 3.28115 25.7431 2.78105 25.2857C2.28095 24.8283 2 24.208 2 23.5611V10.869Z" stroke="#1A1A1A" stroke-width="2.5" stroke-linecap="round" stroke-linejoin="round"/>
<path d="M19.8759 11.9289C19.5364 11.6034 19.1333 11.3452 18.6897 11.169C18.246 10.9928 17.7705 10.9022 17.2902 10.9022C16.8099 10.9022 16.3344 10.9928 15.8907 11.169C15.447 11.3452 15.0439 11.6034 14.7044 11.9289L14.5771 12.0509C14.2622 12.3526 13.7374 12.3526 13.4226 12.0509L13.2952 11.9289C12.6094 11.2717 11.6793 10.9025 10.7094 10.9025C9.73963 10.9025 8.8095 11.2717 8.12368 11.9289C7.43792 12.5861 7.05264 13.4774 7.05264 14.4069C7.05264 15.3362 7.43792 16.2276 8.12368 16.8848L8.82832 17.56L13.4226 21.9627C13.7374 22.2645 14.2622 22.2645 14.5771 21.9627L19.1714 17.56L19.8759 16.8848C20.2156 16.5594 20.4851 16.1731 20.6689 15.7479C20.8527 15.3228 20.9474 14.8671 20.9474 14.4069C20.9474 13.9466 20.8527 13.4909 20.6689 13.0657C20.4851 12.6405 20.2156 12.2542 19.8759 11.9289Z" stroke="#1A1A1A" stroke-width="2.5" stroke-linecap="round" stroke-linejoin="round"/>
</svg>
