<svg width="237" height="56" viewBox="0 0 237 56" fill="none" xmlns="http://www.w3.org/2000/svg">
<path d="M59.5695 30.1538V9.04613H64.0735V30.1538H59.5695ZM61.6413 21.7711V17.8812H72.511V21.7711H61.6413ZM61.6413 13.1169V9.04613H73.7723V13.1169H61.6413ZM85.0343 30.4554C83.7131 30.4554 82.5221 30.0935 81.4611 29.3698C80.4002 28.6461 79.5594 27.6611 78.9388 26.4147C78.3183 25.1684 78.0079 23.7411 78.0079 22.1329C78.0079 20.5247 78.3183 19.1075 78.9388 17.8812C79.5794 16.6349 80.4401 15.6598 81.5211 14.9563C82.6021 14.2326 83.8332 13.8707 85.2145 13.8707C85.9952 13.8707 86.7059 13.9914 87.3464 14.2326C88.007 14.4537 88.5775 14.7653 89.0579 15.1674C89.5584 15.5694 89.9788 16.0318 90.3191 16.5544C90.6595 17.0771 90.8997 17.64 91.0397 18.2431L90.1389 18.0923V14.2024H94.3727V30.1538H90.0789V26.3243L91.0397 26.2338C90.8796 26.7967 90.6194 27.3294 90.259 27.832C89.8987 28.3346 89.4483 28.7869 88.9078 29.1889C88.3874 29.5709 87.7968 29.8824 87.1362 30.1237C86.4756 30.3448 85.775 30.4554 85.0343 30.4554ZM86.2053 26.7464C87.006 26.7464 87.7067 26.5555 88.3073 26.1735C88.9078 25.7915 89.3682 25.2589 89.6884 24.5754C90.0288 23.8718 90.199 23.0577 90.199 22.1329C90.199 21.2283 90.0288 20.4343 89.6884 19.7507C89.3682 19.0672 88.9078 18.5346 88.3073 18.1526C87.7067 17.7506 87.006 17.5495 86.2053 17.5495C85.4245 17.5495 84.7339 17.7506 84.1334 18.1526C83.5529 18.5346 83.0926 19.0672 82.7522 19.7507C82.412 20.4343 82.2417 21.2283 82.2417 22.1329C82.2417 23.0577 82.412 23.8718 82.7522 24.5754C83.0926 25.2589 83.5529 25.7915 84.1334 26.1735C84.7339 26.5555 85.4245 26.7464 86.2053 26.7464ZM100.762 30.1538V14.2024H104.876L104.966 17.248L104.336 17.3686C104.556 16.846 104.846 16.3735 105.206 15.9514C105.567 15.5292 105.987 15.1674 106.468 14.8658C106.968 14.5643 107.489 14.3331 108.029 14.1723C108.57 13.9914 109.11 13.9009 109.651 13.9009C110.471 13.9009 111.212 14.0315 111.873 14.2929C112.533 14.5543 113.094 14.9663 113.554 15.5292C114.014 16.072 114.374 16.7957 114.635 17.7003L113.974 17.64L114.185 17.1575C114.445 16.675 114.776 16.2429 115.176 15.8609C115.576 15.4589 116.026 15.1171 116.527 14.8357C117.028 14.5341 117.548 14.3029 118.088 14.1421C118.629 13.9813 119.16 13.9009 119.68 13.9009C120.92 13.9009 121.952 14.1521 122.772 14.6547C123.593 15.1372 124.204 15.8709 124.604 16.856C125.024 17.841 125.235 19.0472 125.235 20.4744V30.1538H120.971V20.776C120.971 20.0523 120.871 19.4592 120.671 18.9969C120.47 18.5346 120.18 18.1928 119.8 17.9717C119.419 17.7304 118.929 17.6098 118.328 17.6098C117.868 17.6098 117.437 17.6903 117.037 17.8511C116.657 17.9918 116.317 18.2029 116.016 18.4843C115.736 18.7457 115.516 19.0572 115.356 19.4191C115.196 19.7809 115.116 20.1829 115.116 20.6252V30.1538H110.852V20.7458C110.852 20.0824 110.741 19.5195 110.521 19.0572C110.321 18.5747 110.031 18.2129 109.651 17.9717C109.27 17.7304 108.8 17.6098 108.239 17.6098C107.779 17.6098 107.348 17.6903 106.948 17.8511C106.568 17.9918 106.237 18.2029 105.957 18.4843C105.677 18.7457 105.447 19.0572 105.266 19.4191C105.106 19.7809 105.026 20.1729 105.026 20.5951V30.1538H100.762ZM131.8 30.1538V14.2024H136.064V30.1538H131.8ZM133.902 10.9157C133.081 10.9157 132.44 10.7146 131.98 10.3126C131.52 9.91054 131.289 9.33762 131.289 8.59382C131.289 7.91033 131.52 7.35751 131.98 6.93536C132.46 6.4931 133.101 6.27197 133.902 6.27197C134.722 6.27197 135.363 6.48305 135.824 6.9052C136.284 7.30725 136.514 7.87013 136.514 8.59382C136.514 9.29741 136.274 9.86028 135.793 10.2824C135.333 10.7046 134.703 10.9157 133.902 10.9157ZM142.793 30.1538V7.83997H147.057V30.1538H142.793ZM155.311 37.0892L158.794 28.8874L158.854 31.36L151.107 14.2024H155.942L159.815 23.3994C159.975 23.7411 160.125 24.1432 160.266 24.6055C160.425 25.0478 160.555 25.48 160.656 25.9021L159.935 26.2037C160.055 25.862 160.195 25.47 160.356 25.0277C160.515 24.5854 160.675 24.113 160.836 23.6104L164.169 14.2024H169.034L162.368 30.1538L159.635 37.0892H155.311ZM183.381 30.4554C181.84 30.4554 180.419 30.184 179.117 29.6412C177.816 29.0984 176.675 28.3446 175.694 27.3797C174.733 26.3946 173.993 25.2387 173.472 23.912C172.952 22.5651 172.691 21.1077 172.691 19.5397C172.691 17.9515 172.952 16.5041 173.472 15.1975C173.993 13.8707 174.733 12.7149 175.694 11.7298C176.675 10.7448 177.816 9.9809 179.117 9.43813C180.419 8.89536 181.84 8.62397 183.381 8.62397C184.943 8.62397 186.365 8.89536 187.645 9.43813C188.947 9.9809 190.077 10.7448 191.038 11.7298C192.019 12.7149 192.77 13.8707 193.29 15.1975C193.811 16.5243 194.071 17.9717 194.071 19.5397C194.071 21.1077 193.811 22.5551 193.29 23.8818C192.77 25.2086 192.019 26.3645 191.038 27.3495C190.077 28.3346 188.947 29.0984 187.645 29.6412C186.365 30.184 184.943 30.4554 183.381 30.4554ZM183.381 26.1735C184.263 26.1735 185.073 26.0127 185.813 25.6911C186.575 25.3694 187.225 24.9071 187.765 24.304C188.306 23.7009 188.726 22.9973 189.026 22.1932C189.347 21.3891 189.507 20.5046 189.507 19.5397C189.507 18.5747 189.347 17.6903 189.026 16.8861C188.726 16.082 188.306 15.3885 187.765 14.8055C187.225 14.2024 186.575 13.7401 185.813 13.4184C185.073 13.0767 184.263 12.9058 183.381 12.9058C182.501 12.9058 181.69 13.0767 180.949 13.4184C180.209 13.7401 179.558 14.2024 178.997 14.8055C178.437 15.3885 178.006 16.082 177.706 16.8861C177.426 17.6903 177.286 18.5747 177.286 19.5397C177.286 20.5046 177.426 21.3891 177.706 22.1932C178.006 22.9973 178.437 23.7009 178.997 24.304C179.558 24.9071 180.209 25.3694 180.949 25.6911C181.69 26.0127 182.501 26.1735 183.381 26.1735ZM199.692 30.1538V14.2024H203.776L203.896 17.4591L203.055 17.8209C203.275 17.0972 203.666 16.4438 204.226 15.8609C204.807 15.2578 205.497 14.7754 206.298 14.4135C207.098 14.0517 207.939 13.8707 208.821 13.8707C210.022 13.8707 211.022 14.112 211.823 14.5944C212.644 15.0769 213.254 15.8106 213.655 16.7957C214.075 17.7606 214.286 18.9567 214.286 20.384V30.1538H210.022V20.7157C210.022 19.992 209.921 19.3889 209.721 18.9064C209.521 18.424 209.211 18.0721 208.791 17.8511C208.389 17.6098 207.89 17.5093 207.289 17.5495C206.809 17.5495 206.358 17.63 205.938 17.7907C205.537 17.9315 205.187 18.1426 204.887 18.424C204.606 18.7054 204.377 19.0271 204.196 19.3889C204.036 19.7507 203.956 20.1427 203.956 20.5649V30.1538H201.854C201.393 30.1538 200.983 30.1538 200.623 30.1538C200.263 30.1538 199.952 30.1538 199.692 30.1538ZM228.053 30.4554C226.331 30.4554 224.829 30.1035 223.549 29.4C222.267 28.6964 221.267 27.7315 220.546 26.5052C219.826 25.2789 219.465 23.8718 219.465 22.2837C219.465 21.0574 219.665 19.9317 220.066 18.9064C220.466 17.8812 221.027 16.9967 221.747 16.2529C222.468 15.489 223.318 14.906 224.3 14.504C225.3 14.0818 226.381 13.8707 227.543 13.8707C228.623 13.8707 229.624 14.0718 230.545 14.4738C231.465 14.8558 232.257 15.4086 232.917 16.1323C233.597 16.8358 234.118 17.6701 234.479 18.6351C234.839 19.6 234.999 20.6554 234.959 21.8012L234.929 23.128H222.168L221.477 20.5046H231.416L230.936 21.0474V20.384C230.895 19.8412 230.715 19.3487 230.395 18.9064C230.095 18.4641 229.704 18.1224 229.224 17.8812C228.744 17.64 228.203 17.5194 227.603 17.5194C226.721 17.5194 225.97 17.6903 225.351 18.032C224.75 18.3737 224.289 18.8763 223.969 19.5397C223.649 20.203 223.489 21.0072 223.489 21.952C223.489 22.9169 223.688 23.7512 224.089 24.4547C224.51 25.1583 225.09 25.7112 225.831 26.1132C226.591 26.4952 227.482 26.6861 228.503 26.6861C229.204 26.6861 229.844 26.5755 230.425 26.3544C231.005 26.1333 231.626 25.7514 232.287 25.2086L234.329 28.0732C233.747 28.5958 233.107 29.0381 232.407 29.4C231.706 29.7417 230.985 30.0031 230.245 30.184C229.504 30.3649 228.774 30.4554 228.053 30.4554Z" fill="#1A1A1A"/>
<path d="M67.9075 50.5378C67.9876 50.5378 68.0576 50.5704 68.1177 50.6358L68.6957 51.2615C68.2552 51.7741 67.7198 52.1737 67.0892 52.4601C66.4637 52.7466 65.7055 52.8898 64.8147 52.8898C64.0439 52.8898 63.3433 52.7566 62.7128 52.4903C62.0822 52.2189 61.5442 51.842 61.0988 51.3595C60.6534 50.872 60.3081 50.289 60.0629 49.6106C59.8176 48.9321 59.695 48.1858 59.695 47.3717C59.695 46.5575 59.8227 45.8112 60.0779 45.1327C60.3331 44.4543 60.691 43.8713 61.1514 43.3838C61.6168 42.8963 62.1723 42.5194 62.8179 42.253C63.4634 41.9817 64.1766 41.846 64.9573 41.846C65.723 41.846 66.3986 41.9691 66.9841 42.2153C67.5697 42.4616 68.0852 42.7958 68.5305 43.218L68.0501 43.8889C68.0201 43.9392 67.9801 43.9818 67.93 44.017C67.8849 44.0472 67.8224 44.0623 67.7423 44.0623C67.6522 44.0623 67.5421 44.0146 67.412 43.919C67.2819 43.8186 67.1117 43.708 66.9016 43.5873C66.6914 43.4667 66.4286 43.3587 66.1133 43.2632C65.7981 43.1627 65.4102 43.1124 64.9498 43.1124C64.3943 43.1124 63.8863 43.2104 63.4259 43.4064C62.9655 43.5974 62.5677 43.8763 62.2323 44.2432C61.902 44.6101 61.6443 45.0573 61.4591 45.585C61.2739 46.1127 61.1814 46.7083 61.1814 47.3717C61.1814 48.0451 61.2765 48.6457 61.4666 49.1733C61.6618 49.701 61.9246 50.1483 62.2548 50.5152C62.5902 50.877 62.983 51.1535 63.4334 51.3444C63.8889 51.5354 64.3793 51.6309 64.9047 51.6309C65.2251 51.6309 65.5128 51.6133 65.768 51.5781C66.0283 51.5379 66.2659 51.4776 66.4812 51.3972C66.7013 51.3167 66.904 51.2163 67.0892 51.0957C67.2794 50.97 67.467 50.8218 67.6522 50.6509C67.7373 50.5755 67.8224 50.5378 67.9075 50.5378ZM75.3797 45.0121C75.9352 45.0121 76.4357 45.1051 76.8811 45.291C77.3266 45.477 77.7068 45.7409 78.0221 46.0826C78.3374 46.4243 78.5776 46.8389 78.7428 47.3264C78.913 47.8089 78.998 48.3492 78.998 48.9472C78.998 49.5503 78.913 50.093 78.7428 50.5755C78.5776 51.058 78.3374 51.4701 78.0221 51.8118C77.7068 52.1535 77.3266 52.4174 76.8811 52.6033C76.4357 52.7843 75.9352 52.8747 75.3797 52.8747C74.8193 52.8747 74.3138 52.7843 73.8633 52.6033C73.418 52.4174 73.0376 52.1535 72.7223 51.8118C72.407 51.4701 72.1643 51.058 71.9942 50.5755C71.829 50.093 71.7464 49.5503 71.7464 48.9472C71.7464 48.3492 71.829 47.8089 71.9942 47.3264C72.1643 46.8389 72.407 46.4243 72.7223 46.0826C73.0376 45.7409 73.418 45.477 73.8633 45.291C74.3138 45.1051 74.8193 45.0121 75.3797 45.0121ZM75.3797 51.8269C76.1304 51.8269 76.6909 51.5756 77.0612 51.073C77.4316 50.5655 77.6167 49.8593 77.6167 48.9547C77.6167 48.0451 77.4316 47.3364 77.0612 46.8289C76.6909 46.3213 76.1304 46.0675 75.3797 46.0675C74.9994 46.0675 74.6666 46.1329 74.3813 46.2635C74.1011 46.3941 73.8659 46.5826 73.6757 46.8289C73.4906 47.0752 73.3504 47.3792 73.2553 47.741C73.1652 48.0978 73.1202 48.5024 73.1202 48.9547C73.1202 49.8593 73.3054 50.5655 73.6757 51.073C74.051 51.5756 74.6191 51.8269 75.3797 51.8269ZM84.206 46.2409C84.3711 46.0549 84.5463 45.8866 84.7315 45.7358C84.9167 45.585 85.1118 45.4569 85.317 45.3513C85.5272 45.2407 85.7473 45.1578 85.9776 45.1026C86.2128 45.0423 86.4655 45.0121 86.7358 45.0121C87.1511 45.0121 87.5165 45.0824 87.8318 45.2232C88.1521 45.3589 88.4173 45.5549 88.6275 45.8112C88.8427 46.0624 89.0053 46.3666 89.1154 46.7233C89.2256 47.0801 89.2806 47.4747 89.2806 47.9069V52.7692H87.9369V47.9069C87.9369 47.3289 87.8042 46.8817 87.539 46.565C87.2787 46.2434 86.8809 46.0826 86.3454 46.0826C85.95 46.0826 85.5797 46.1781 85.2344 46.369C84.8941 46.56 84.5789 46.8189 84.2886 47.1455V52.7692H82.9448V45.1327H83.7481C83.9382 45.1327 84.0559 45.2257 84.1009 45.4117L84.206 46.2409ZM98.6583 48.118C98.6583 47.8064 98.6132 47.5224 98.5231 47.2661C98.4381 47.0047 98.3105 46.7812 98.1403 46.5952C97.9751 46.4043 97.7725 46.2584 97.5322 46.158C97.292 46.0524 97.0193 45.9997 96.714 45.9997C96.0735 45.9997 95.5655 46.1881 95.1901 46.565C94.8198 46.9369 94.5896 47.4546 94.4995 48.118H98.6583ZM99.7392 51.6987C99.5741 51.8998 99.3764 52.0757 99.1462 52.2264C98.9161 52.3721 98.6684 52.4927 98.403 52.5883C98.1429 52.6838 97.8726 52.7541 97.5923 52.7993C97.3121 52.8496 97.0343 52.8747 96.759 52.8747C96.2336 52.8747 95.7482 52.7867 95.3027 52.6109C94.8624 52.43 94.4796 52.1686 94.1542 51.8269C93.834 51.4801 93.5837 51.0529 93.4035 50.5453C93.2234 50.0378 93.1333 49.4547 93.1333 48.7964C93.1333 48.2637 93.2134 47.7661 93.3735 47.3038C93.5386 46.8415 93.7739 46.4419 94.0791 46.1052C94.3844 45.7635 94.7573 45.4971 95.1976 45.3061C95.6381 45.1101 96.1335 45.0121 96.684 45.0121C97.1394 45.0121 97.5598 45.09 97.9451 45.2458C98.3355 45.3966 98.6708 45.6177 98.951 45.9092C99.2363 46.1957 99.459 46.5524 99.6191 46.9797C99.7794 47.4018 99.8593 47.8843 99.8593 48.427C99.8593 48.6381 99.8368 48.7789 99.7918 48.8492C99.7468 48.9195 99.6617 48.9547 99.5366 48.9547H94.4545C94.4695 49.4372 94.5346 49.8569 94.6496 50.2137C94.7698 50.5704 94.9349 50.8695 95.1451 51.1107C95.3553 51.3469 95.6056 51.5253 95.8958 51.646C96.1861 51.7615 96.5113 51.8193 96.8717 51.8193C97.207 51.8193 97.4947 51.7817 97.7349 51.7063C97.9802 51.6258 98.1904 51.5404 98.3655 51.45C98.5407 51.3595 98.6858 51.2766 98.8009 51.2012C98.921 51.1207 99.0236 51.0806 99.1087 51.0806C99.2188 51.0806 99.3038 51.1233 99.3639 51.2087L99.7392 51.6987ZM109.045 46.4897C109.005 46.5449 108.965 46.5877 108.925 46.6178C108.885 46.648 108.83 46.663 108.759 46.663C108.684 46.663 108.602 46.6329 108.512 46.5726C108.422 46.5072 108.309 46.4369 108.174 46.3615C108.044 46.2861 107.881 46.2183 107.686 46.158C107.496 46.0926 107.261 46.06 106.981 46.06C106.605 46.06 106.275 46.1278 105.99 46.2635C105.704 46.3941 105.464 46.5852 105.269 46.8364C105.079 47.0877 104.934 47.3918 104.834 47.7486C104.739 48.1054 104.691 48.5049 104.691 48.9472C104.691 49.4095 104.744 49.8217 104.849 50.1835C104.954 50.5403 105.101 50.8418 105.292 51.0881C105.487 51.3293 105.719 51.5153 105.99 51.646C106.265 51.7716 106.573 51.8344 106.913 51.8344C107.238 51.8344 107.506 51.7967 107.716 51.7213C107.926 51.6409 108.099 51.553 108.234 51.4575C108.374 51.362 108.489 51.2766 108.579 51.2012C108.675 51.1207 108.767 51.0806 108.857 51.0806C108.967 51.0806 109.052 51.1233 109.112 51.2087L109.488 51.6987C109.322 51.9047 109.135 52.0807 108.925 52.2264C108.714 52.3721 108.487 52.4953 108.241 52.5958C108.001 52.6913 107.749 52.7617 107.483 52.8069C107.218 52.8521 106.948 52.8747 106.673 52.8747C106.197 52.8747 105.755 52.7867 105.344 52.6109C104.939 52.435 104.586 52.1812 104.286 51.8495C103.985 51.5127 103.75 51.1007 103.58 50.6132C103.41 50.1257 103.325 49.5704 103.325 48.9472C103.325 48.3793 103.402 47.8541 103.558 47.3717C103.718 46.8892 103.948 46.4746 104.248 46.1278C104.553 45.776 104.926 45.5021 105.367 45.3061C105.812 45.1101 106.323 45.0121 106.898 45.0121C107.434 45.0121 107.904 45.1001 108.309 45.276C108.72 45.4469 109.082 45.6906 109.397 46.0072L109.045 46.4897ZM115.509 52.8898C114.909 52.8898 114.445 52.7215 114.12 52.3847C113.8 52.048 113.64 51.563 113.64 50.9298V46.256H112.724C112.644 46.256 112.576 46.2333 112.521 46.1881C112.467 46.1378 112.439 46.0624 112.439 45.962V45.4267L113.685 45.2684L113.993 42.9089C114.008 42.8335 114.04 42.7732 114.09 42.728C114.145 42.6777 114.216 42.6526 114.3 42.6526H114.976V45.2835H117.176V46.256H114.976V50.8393C114.976 51.161 115.053 51.3997 115.209 51.5555C115.364 51.7113 115.564 51.7892 115.809 51.7892C115.95 51.7892 116.07 51.7716 116.17 51.7364C116.275 51.6963 116.365 51.6535 116.44 51.6083C116.515 51.563 116.577 51.5229 116.628 51.4877C116.682 51.4475 116.731 51.4274 116.77 51.4274C116.84 51.4274 116.903 51.4701 116.958 51.5555L117.348 52.1963C117.118 52.4124 116.84 52.5832 116.515 52.7089C116.19 52.8295 115.854 52.8898 115.509 52.8898ZM124.928 49.3317C124.312 49.3518 123.787 49.402 123.352 49.4824C122.921 49.5578 122.569 49.6583 122.293 49.784C122.023 49.9096 121.826 50.0578 121.7 50.2287C121.58 50.3996 121.52 50.5906 121.52 50.8017C121.52 51.0027 121.553 51.1761 121.617 51.3218C121.683 51.4675 121.771 51.5881 121.88 51.6837C121.996 51.7741 122.128 51.842 122.278 51.8872C122.434 51.9274 122.599 51.9475 122.773 51.9475C123.009 51.9475 123.224 51.9249 123.419 51.8797C123.614 51.8294 123.798 51.759 123.967 51.6686C124.143 51.5781 124.308 51.4701 124.463 51.3444C124.623 51.2187 124.778 51.0755 124.928 50.9147V49.3317ZM120.612 46.2107C121.032 45.8037 121.486 45.4996 121.97 45.2986C122.456 45.0975 122.994 44.997 123.584 44.997C124.01 44.997 124.387 45.0674 124.718 45.2081C125.048 45.3489 125.326 45.5449 125.551 45.7961C125.776 46.0474 125.947 46.3515 126.061 46.7083C126.177 47.0651 126.234 47.4571 126.234 47.8843V52.7692H125.641C125.511 52.7692 125.412 52.7491 125.341 52.7089C125.271 52.6637 125.216 52.5783 125.176 52.4526L125.026 51.7289C124.826 51.9149 124.631 52.0807 124.44 52.2264C124.25 52.3672 124.05 52.4878 123.839 52.5883C123.629 52.6838 123.404 52.7566 123.164 52.8069C122.929 52.8621 122.666 52.8898 122.376 52.8898C122.081 52.8898 121.803 52.8496 121.542 52.7692C121.283 52.6838 121.054 52.5581 120.859 52.3923C120.669 52.2264 120.517 52.0178 120.401 51.7666C120.292 51.5103 120.236 51.2087 120.236 50.862C120.236 50.5604 120.319 50.2715 120.484 49.995C120.649 49.7136 120.917 49.4649 121.287 49.2487C121.658 49.0326 122.141 48.8567 122.736 48.721C123.332 48.5803 124.063 48.4999 124.928 48.4798V47.8843C124.928 47.2912 124.8 46.844 124.545 46.5424C124.29 46.2358 123.918 46.0826 123.427 46.0826C123.096 46.0826 122.819 46.1253 122.593 46.2107C122.373 46.2912 122.18 46.3841 122.015 46.4897C121.856 46.5901 121.715 46.6832 121.595 46.7686C121.48 46.849 121.365 46.8892 121.25 46.8892C121.16 46.8892 121.082 46.8666 121.017 46.8213C120.953 46.7711 120.897 46.7107 120.852 46.6404L120.612 46.2107ZM131.783 46.2409C131.948 46.0549 132.124 45.8866 132.308 45.7358C132.494 45.585 132.689 45.4569 132.894 45.3513C133.104 45.2407 133.325 45.1578 133.554 45.1026C133.79 45.0423 134.042 45.0121 134.313 45.0121C134.729 45.0121 135.093 45.0824 135.408 45.2232C135.729 45.3589 135.994 45.5549 136.204 45.8112C136.42 46.0624 136.583 46.3666 136.692 46.7233C136.803 47.0801 136.857 47.4747 136.857 47.9069V52.7692H135.514V47.9069C135.514 47.3289 135.382 46.8817 135.116 46.565C134.856 46.2434 134.458 46.0826 133.922 46.0826C133.528 46.0826 133.156 46.1781 132.811 46.369C132.471 46.56 132.156 46.8189 131.865 47.1455V52.7692H130.522V45.1327H131.325C131.516 45.1327 131.633 45.2257 131.678 45.4117L131.783 46.2409ZM146.1 46.9495C145.85 46.6127 145.58 46.3791 145.29 46.2484C144.999 46.1127 144.674 46.0449 144.314 46.0449C143.608 46.0449 143.065 46.2987 142.685 46.8063C142.304 47.3138 142.114 48.0375 142.114 48.9773C142.114 49.4749 142.157 49.9021 142.242 50.2589C142.327 50.6107 142.452 50.9021 142.617 51.1333C142.782 51.3595 142.985 51.5253 143.225 51.6309C143.465 51.7364 143.738 51.7892 144.043 51.7892C144.484 51.7892 144.867 51.6887 145.192 51.4877C145.522 51.2866 145.825 51.0027 146.1 50.6358V46.9495ZM147.437 41.665V52.7692H146.641C146.451 52.7692 146.331 52.6763 146.28 52.4903L146.16 51.563C145.835 51.955 145.464 52.2717 145.049 52.5129C144.634 52.7541 144.154 52.8747 143.608 52.8747C143.173 52.8747 142.777 52.7918 142.422 52.626C142.067 52.4551 141.764 52.2063 141.514 51.8797C141.264 51.553 141.071 51.1459 140.936 50.6584C140.801 50.1709 140.733 49.6106 140.733 48.9773C140.733 48.4144 140.808 47.8918 140.958 47.4093C141.108 46.9218 141.324 46.4997 141.604 46.1429C141.884 45.7861 142.227 45.5072 142.632 45.3061C143.043 45.1001 143.503 44.997 144.013 44.997C144.479 44.997 144.877 45.0775 145.207 45.2383C145.543 45.3941 145.84 45.6127 146.1 45.8941V41.665H147.437ZM155.004 45.0121C155.56 45.0121 156.061 45.1051 156.506 45.291C156.951 45.477 157.332 45.7409 157.647 46.0826C157.962 46.4243 158.202 46.8389 158.367 47.3264C158.538 47.8089 158.623 48.3492 158.623 48.9472C158.623 49.5503 158.538 50.093 158.367 50.5755C158.202 51.058 157.962 51.4701 157.647 51.8118C157.332 52.1535 156.951 52.4174 156.506 52.6033C156.061 52.7843 155.56 52.8747 155.004 52.8747C154.444 52.8747 153.938 52.7843 153.488 52.6033C153.043 52.4174 152.662 52.1535 152.347 51.8118C152.032 51.4701 151.789 51.058 151.619 50.5755C151.454 50.093 151.371 49.5503 151.371 48.9472C151.371 48.3492 151.454 47.8089 151.619 47.3264C151.789 46.8389 152.032 46.4243 152.347 46.0826C152.662 45.7409 153.043 45.477 153.488 45.291C153.938 45.1051 154.444 45.0121 155.004 45.0121ZM155.004 51.8269C155.755 51.8269 156.316 51.5756 156.686 51.073C157.056 50.5655 157.241 49.8593 157.241 48.9547C157.241 48.0451 157.056 47.3364 156.686 46.8289C156.316 46.3213 155.755 46.0675 155.004 46.0675C154.624 46.0675 154.291 46.1329 154.006 46.2635C153.726 46.3941 153.49 46.5826 153.3 46.8289C153.115 47.0752 152.975 47.3792 152.88 47.741C152.79 48.0978 152.745 48.5024 152.745 48.9547C152.745 49.8593 152.93 50.5655 153.3 51.073C153.676 51.5756 154.244 51.8269 155.004 51.8269ZM170.434 43.1577V46.9344H174.856V48.1255H170.434V52.7692H168.978V41.9666H175.606V43.1577H170.434ZM182.455 49.3317C181.839 49.3518 181.314 49.402 180.878 49.4824C180.448 49.5578 180.095 49.6583 179.82 49.784C179.549 49.9096 179.352 50.0578 179.227 50.2287C179.107 50.3996 179.047 50.5906 179.047 50.8017C179.047 51.0027 179.08 51.1761 179.144 51.3218C179.21 51.4675 179.297 51.5881 179.407 51.6837C179.523 51.7741 179.655 51.842 179.805 51.8872C179.96 51.9274 180.125 51.9475 180.3 51.9475C180.536 51.9475 180.751 51.9249 180.946 51.8797C181.141 51.8294 181.324 51.759 181.494 51.6686C181.67 51.5781 181.835 51.4701 181.989 51.3444C182.15 51.2187 182.304 51.0755 182.455 50.9147V49.3317ZM178.138 46.2107C178.559 45.8037 179.012 45.4996 179.497 45.2986C179.983 45.0975 180.521 44.997 181.111 44.997C181.537 44.997 181.914 45.0674 182.244 45.2081C182.575 45.3489 182.852 45.5449 183.078 45.7961C183.303 46.0474 183.473 46.3515 183.588 46.7083C183.704 47.0651 183.761 47.4571 183.761 47.8843V52.7692H183.168C183.038 52.7692 182.938 52.7491 182.867 52.7089C182.798 52.6637 182.743 52.5783 182.702 52.4526L182.552 51.7289C182.353 51.9149 182.158 52.0807 181.967 52.2264C181.777 52.3672 181.576 52.4878 181.366 52.5883C181.156 52.6838 180.931 52.7566 180.691 52.8069C180.456 52.8621 180.193 52.8898 179.902 52.8898C179.607 52.8898 179.33 52.8496 179.069 52.7692C178.81 52.6838 178.581 52.5581 178.386 52.3923C178.196 52.2264 178.044 52.0178 177.928 51.7666C177.819 51.5103 177.763 51.2087 177.763 50.862C177.763 50.5604 177.845 50.2715 178.011 49.995C178.176 49.7136 178.444 49.4649 178.814 49.2487C179.185 49.0326 179.667 48.8567 180.263 48.721C180.859 48.5803 181.589 48.4999 182.455 48.4798V47.8843C182.455 47.2912 182.327 46.844 182.072 46.5424C181.817 46.2358 181.444 46.0826 180.953 46.0826C180.623 46.0826 180.345 46.1253 180.12 46.2107C179.9 46.2912 179.707 46.3841 179.542 46.4897C179.382 46.5901 179.242 46.6832 179.122 46.7686C179.007 46.849 178.892 46.8892 178.776 46.8892C178.686 46.8892 178.609 46.8666 178.544 46.8213C178.479 46.7711 178.423 46.7107 178.378 46.6404L178.138 46.2107ZM188.048 52.7692V45.1327H188.851C189.042 45.1327 189.159 45.2257 189.204 45.4117L189.302 46.1957C189.583 45.8489 189.898 45.5649 190.248 45.3438C190.598 45.1227 191.004 45.0121 191.464 45.0121C191.974 45.0121 192.387 45.1553 192.702 45.4418C193.023 45.7283 193.254 46.1152 193.393 46.6027C193.504 46.3263 193.644 46.0876 193.813 45.8866C193.989 45.6855 194.184 45.5197 194.399 45.389C194.615 45.2584 194.842 45.1629 195.082 45.1026C195.328 45.0423 195.575 45.0121 195.825 45.0121C196.226 45.0121 196.581 45.0775 196.891 45.2081C197.207 45.3338 197.472 45.5197 197.687 45.766C197.908 46.0123 198.075 46.3163 198.19 46.6781C198.306 47.0349 198.363 47.4446 198.363 47.9069V52.7692H197.019V47.9069C197.019 47.3089 196.889 46.8566 196.628 46.55C196.369 46.2384 195.994 46.0826 195.502 46.0826C195.283 46.0826 195.072 46.1227 194.872 46.2032C194.677 46.2786 194.504 46.3917 194.354 46.5424C194.204 46.6932 194.084 46.8841 193.994 47.1153C193.909 47.3415 193.866 47.6053 193.866 47.9069V52.7692H192.522V47.9069C192.522 47.2938 192.4 46.8364 192.154 46.5349C191.91 46.2333 191.552 46.0826 191.081 46.0826C190.751 46.0826 190.446 46.173 190.165 46.354C189.885 46.5298 189.628 46.7711 189.392 47.0777V52.7692H188.048ZM204.057 45.1327V52.7692H202.721V45.1327H204.057ZM204.342 42.7355C204.342 42.8661 204.314 42.9893 204.26 43.1049C204.209 43.2155 204.14 43.316 204.049 43.4064C203.965 43.4918 203.862 43.5597 203.742 43.61C203.627 43.6603 203.504 43.6853 203.374 43.6853C203.244 43.6853 203.121 43.6603 203.006 43.61C202.896 43.5597 202.798 43.4918 202.713 43.4064C202.629 43.316 202.561 43.2155 202.511 43.1049C202.46 42.9893 202.436 42.8661 202.436 42.7355C202.436 42.6049 202.46 42.4817 202.511 42.3661C202.561 42.2455 202.629 42.1424 202.713 42.057C202.798 41.9666 202.896 41.8963 203.006 41.846C203.121 41.7957 203.244 41.7706 203.374 41.7706C203.504 41.7706 203.627 41.7957 203.742 41.846C203.862 41.8963 203.965 41.9666 204.049 42.057C204.14 42.1424 204.209 42.2455 204.26 42.3661C204.314 42.4817 204.342 42.6049 204.342 42.7355ZM209.885 41.665V52.7692H208.549V41.665H209.885ZM215.716 45.1327V52.7692H214.38V45.1327H215.716ZM216.001 42.7355C216.001 42.8661 215.973 42.9893 215.919 43.1049C215.868 43.2155 215.799 43.316 215.709 43.4064C215.624 43.4918 215.521 43.5597 215.401 43.61C215.286 43.6603 215.163 43.6853 215.033 43.6853C214.903 43.6853 214.78 43.6603 214.665 43.61C214.555 43.5597 214.457 43.4918 214.372 43.4064C214.288 43.316 214.22 43.2155 214.17 43.1049C214.119 42.9893 214.095 42.8661 214.095 42.7355C214.095 42.6049 214.119 42.4817 214.17 42.3661C214.22 42.2455 214.288 42.1424 214.372 42.057C214.457 41.9666 214.555 41.8963 214.665 41.846C214.78 41.7957 214.903 41.7706 215.033 41.7706C215.163 41.7706 215.286 41.7957 215.401 41.846C215.521 41.8963 215.624 41.9666 215.709 42.057C215.799 42.1424 215.868 42.2455 215.919 42.3661C215.973 42.4817 216.001 42.6049 216.001 42.7355ZM224.285 49.3317C223.669 49.3518 223.144 49.402 222.708 49.4824C222.278 49.5578 221.925 49.6583 221.65 49.784C221.379 49.9096 221.182 50.0578 221.057 50.2287C220.937 50.3996 220.876 50.5906 220.876 50.8017C220.876 51.0027 220.91 51.1761 220.974 51.3218C221.039 51.4675 221.127 51.5881 221.237 51.6837C221.353 51.7741 221.485 51.842 221.635 51.8872C221.79 51.9274 221.955 51.9475 222.13 51.9475C222.366 51.9475 222.581 51.9249 222.776 51.8797C222.971 51.8294 223.154 51.759 223.324 51.6686C223.5 51.5781 223.665 51.4701 223.819 51.3444C223.98 51.2187 224.134 51.0755 224.285 50.9147V49.3317ZM219.968 46.2107C220.389 45.8037 220.842 45.4996 221.327 45.2986C221.813 45.0975 222.351 44.997 222.941 44.997C223.367 44.997 223.744 45.0674 224.074 45.2081C224.405 45.3489 224.682 45.5449 224.908 45.7961C225.133 46.0474 225.303 46.3515 225.418 46.7083C225.534 47.0651 225.591 47.4571 225.591 47.8843V52.7692H224.998C224.868 52.7692 224.768 52.7491 224.697 52.7089C224.628 52.6637 224.573 52.5783 224.532 52.4526L224.382 51.7289C224.183 51.9149 223.988 52.0807 223.797 52.2264C223.607 52.3672 223.406 52.4878 223.196 52.5883C222.986 52.6838 222.761 52.7566 222.52 52.8069C222.286 52.8621 222.023 52.8898 221.732 52.8898C221.437 52.8898 221.16 52.8496 220.899 52.7692C220.639 52.6838 220.411 52.5581 220.216 52.3923C220.026 52.2264 219.874 52.0178 219.758 51.7666C219.649 51.5103 219.593 51.2087 219.593 50.862C219.593 50.5604 219.675 50.2715 219.841 49.995C220.006 49.7136 220.274 49.4649 220.644 49.2487C221.015 49.0326 221.497 48.8567 222.093 48.721C222.689 48.5803 223.419 48.4999 224.285 48.4798V47.8843C224.285 47.2912 224.157 46.844 223.902 46.5424C223.646 46.2358 223.274 46.0826 222.783 46.0826C222.453 46.0826 222.175 46.1253 221.95 46.2107C221.73 46.2912 221.537 46.3841 221.372 46.4897C221.212 46.5901 221.072 46.6832 220.952 46.7686C220.837 46.849 220.722 46.8892 220.606 46.8892C220.516 46.8892 220.439 46.8666 220.374 46.8213C220.309 46.7711 220.253 46.7107 220.208 46.6404L219.968 46.2107ZM234.307 46.3917C234.247 46.5023 234.155 46.5575 234.029 46.5575C233.954 46.5575 233.87 46.5298 233.774 46.4746C233.68 46.4193 233.562 46.359 233.421 46.2937C233.286 46.2233 233.124 46.1604 232.933 46.1052C232.744 46.0449 232.518 46.0147 232.258 46.0147C232.033 46.0147 231.83 46.0449 231.65 46.1052C231.47 46.1604 231.315 46.2384 231.184 46.3389C231.06 46.4394 230.962 46.5575 230.892 46.6932C230.827 46.8238 230.794 46.9671 230.794 47.1229C230.794 47.3189 230.85 47.4823 230.959 47.6129C231.075 47.7435 231.225 47.8566 231.41 47.9521C231.595 48.0476 231.805 48.133 232.04 48.2084C232.276 48.2787 232.516 48.3567 232.761 48.4421C233.012 48.5226 233.254 48.613 233.489 48.7135C233.725 48.814 233.935 48.9397 234.12 49.0904C234.305 49.2412 234.453 49.4272 234.562 49.6483C234.678 49.8644 234.735 50.1257 234.735 50.4323C234.735 50.7841 234.673 51.1107 234.547 51.4123C234.423 51.7087 234.237 51.9676 233.992 52.1887C233.747 52.4049 233.447 52.5757 233.091 52.7013C232.736 52.827 232.325 52.8898 231.86 52.8898C231.33 52.8898 230.85 52.8044 230.419 52.6335C229.989 52.4576 229.623 52.234 229.323 51.9626L229.638 51.45C229.679 51.3846 229.726 51.3344 229.781 51.2992C229.836 51.264 229.906 51.2464 229.991 51.2464C230.081 51.2464 230.176 51.2816 230.276 51.352C230.377 51.4223 230.497 51.5003 230.636 51.5857C230.782 51.6711 230.957 51.749 231.162 51.8193C231.368 51.8897 231.623 51.9249 231.928 51.9249C232.188 51.9249 232.415 51.8923 232.611 51.8269C232.806 51.7566 232.969 51.6635 233.099 51.548C233.229 51.4324 233.324 51.2992 233.384 51.1484C233.449 50.9977 233.481 50.8369 233.481 50.666C233.481 50.4549 233.425 50.2815 233.309 50.1458C233.199 50.0051 233.051 49.887 232.866 49.7915C232.681 49.691 232.468 49.6055 232.228 49.5352C231.993 49.4598 231.751 49.3819 231.5 49.3015C231.255 49.2211 231.012 49.1306 230.772 49.0301C230.537 48.9246 230.326 48.7939 230.141 48.6381C229.956 48.4823 229.806 48.2913 229.691 48.0652C229.581 47.834 229.525 47.5551 229.525 47.2284C229.525 46.9369 229.585 46.658 229.706 46.3917C229.826 46.1203 230.002 45.8841 230.231 45.683C230.462 45.477 230.745 45.3137 231.079 45.193C231.415 45.0724 231.798 45.0121 232.228 45.0121C232.729 45.0121 233.177 45.0926 233.572 45.2533C233.973 45.4092 234.318 45.6252 234.607 45.9017L234.307 46.3917Z" fill="#1A1A1A"/>
<path d="M2.14481 21.4093C2.14481 20.4094 2.60583 19.4659 3.39333 18.854L24.3051 2.60664C25.4643 1.70599 27.0832 1.70599 28.2425 2.60664L49.1542 18.854C49.9417 19.4659 50.4027 20.4094 50.4027 21.4093V49.2836C50.4027 50.7042 49.8378 52.0665 48.8322 53.071C47.8267 54.0755 46.4628 54.6398 45.0407 54.6398H7.5068C6.08471 54.6398 4.72087 54.0755 3.7153 53.071C2.70972 52.0665 2.14481 50.7042 2.14481 49.2836V21.4093Z" stroke="url(#paint0_linear_920_4932)" stroke-width="2.5" stroke-linecap="round" stroke-linejoin="round"/>
<path d="M38.0888 23.7368C37.4061 23.0219 36.5956 22.4548 35.7035 22.068C34.8113 21.6811 33.8551 21.4819 32.8895 21.4819C31.9238 21.4819 30.9675 21.6811 30.0754 22.068C29.1834 22.4548 28.3728 23.0219 27.6901 23.7368L27.4341 24.0048C26.8009 24.6675 25.7457 24.6675 25.1126 24.0048L24.8566 23.7368C23.4776 22.2935 21.6073 21.4827 19.6573 21.4827C17.7071 21.4827 15.8368 22.2935 14.458 23.7368C13.079 25.1802 12.3043 27.1377 12.3043 29.1789C12.3043 31.22 13.079 33.1776 14.458 34.6209L15.8747 36.1039L25.1126 45.773C25.7457 46.4357 26.8009 46.4357 27.4341 45.773L36.6719 36.1039L38.0888 34.6209C38.7717 33.9064 39.3136 33.058 39.6832 32.1242C40.0528 31.1905 40.2431 30.1896 40.2431 29.1789C40.2431 28.1681 40.0528 27.1673 39.6832 26.2335C39.3136 25.2997 38.7717 24.4513 38.0888 23.7368Z" stroke="url(#paint1_linear_920_4932)" stroke-width="2.5" stroke-linecap="round" stroke-linejoin="round"/>
<defs>
<linearGradient id="paint0_linear_920_4932" x1="26.2738" y1="1.07709" x2="26.2738" y2="54.6398" gradientUnits="userSpaceOnUse">
<stop stop-color="#FF8A00"/>
<stop offset="0.5" stop-color="#B2F28F"/>
<stop offset="1" stop-color="#009DC9"/>
</linearGradient>
<linearGradient id="paint1_linear_920_4932" x1="26.2736" y1="21.4819" x2="26.2736" y2="46.988" gradientUnits="userSpaceOnUse">
<stop stop-color="#FF8A00"/>
<stop offset="0.5" stop-color="#B2F28F"/>
<stop offset="1" stop-color="#009DC9"/>
</linearGradient>
</defs>
</svg>
