<svg width="237" height="56" viewBox="0 0 237 56" fill="none" xmlns="http://www.w3.org/2000/svg">
<path d="M59.5693 30.1538V9.04613H64.0734V30.1538H59.5693ZM61.6412 21.7711V17.8812H72.5109V21.7711H61.6412ZM61.6412 13.1169V9.04613H73.7722V13.1169H61.6412ZM85.0342 30.4554C83.713 30.4554 82.522 30.0935 81.461 29.3698C80.4 28.6461 79.5593 27.6611 78.9387 26.4147C78.3182 25.1684 78.0078 23.7411 78.0078 22.1329C78.0078 20.5247 78.3182 19.1075 78.9387 17.8812C79.5793 16.6349 80.44 15.6598 81.521 14.9563C82.602 14.2326 83.8331 13.8707 85.2143 13.8707C85.9951 13.8707 86.7057 13.9914 87.3463 14.2326C88.0069 14.4537 88.5774 14.7653 89.0578 15.1674C89.5583 15.5694 89.9787 16.0318 90.319 16.5544C90.6593 17.0771 90.8996 17.64 91.0396 18.2431L90.1388 18.0923V14.2024H94.3726V30.1538H90.0787V26.3243L91.0396 26.2338C90.8795 26.7967 90.6192 27.3294 90.2589 27.832C89.8986 28.3346 89.4482 28.7869 88.9077 29.1889C88.3872 29.5709 87.7967 29.8824 87.1361 30.1237C86.4755 30.3448 85.7749 30.4554 85.0342 30.4554ZM86.2051 26.7464C87.0059 26.7464 87.7066 26.5555 88.3071 26.1735C88.9077 25.7915 89.3681 25.2589 89.6883 24.5754C90.0287 23.8718 90.1988 23.0577 90.1988 22.1329C90.1988 21.2283 90.0287 20.4343 89.6883 19.7507C89.3681 19.0672 88.9077 18.5346 88.3071 18.1526C87.7066 17.7506 87.0059 17.5495 86.2051 17.5495C85.4244 17.5495 84.7338 17.7506 84.1333 18.1526C83.5528 18.5346 83.0925 19.0672 82.7521 19.7507C82.4118 20.4343 82.2415 21.2283 82.2415 22.1329C82.2415 23.0577 82.4118 23.8718 82.7521 24.5754C83.0925 25.2589 83.5528 25.7915 84.1333 26.1735C84.7338 26.5555 85.4244 26.7464 86.2051 26.7464ZM100.762 30.1538V14.2024H104.876L104.966 17.248L104.336 17.3686C104.556 16.846 104.846 16.3735 105.206 15.9514C105.567 15.5292 105.987 15.1674 106.467 14.8658C106.968 14.5643 107.488 14.3331 108.029 14.1723C108.569 13.9914 109.11 13.9009 109.65 13.9009C110.471 13.9009 111.212 14.0315 111.872 14.2929C112.533 14.5543 113.094 14.9663 113.554 15.5292C114.014 16.072 114.374 16.7957 114.635 17.7003L113.974 17.64L114.185 17.1575C114.445 16.675 114.775 16.2429 115.175 15.8609C115.575 15.4589 116.026 15.1171 116.527 14.8357C117.027 14.5341 117.548 14.3029 118.088 14.1421C118.629 13.9813 119.159 13.9009 119.68 13.9009C120.92 13.9009 121.952 14.1521 122.772 14.6547C123.593 15.1372 124.204 15.8709 124.604 16.856C125.024 17.841 125.235 19.0472 125.235 20.4744V30.1538H120.971V20.776C120.971 20.0523 120.871 19.4592 120.67 18.9969C120.47 18.5346 120.18 18.1928 119.8 17.9717C119.419 17.7304 118.929 17.6098 118.328 17.6098C117.868 17.6098 117.437 17.6903 117.037 17.8511C116.656 17.9918 116.316 18.2029 116.016 18.4843C115.736 18.7457 115.515 19.0572 115.356 19.4191C115.196 19.7809 115.115 20.1829 115.115 20.6252V30.1538H110.852V20.7458C110.852 20.0824 110.741 19.5195 110.521 19.0572C110.321 18.5747 110.031 18.2129 109.65 17.9717C109.27 17.7304 108.8 17.6098 108.239 17.6098C107.779 17.6098 107.348 17.6903 106.948 17.8511C106.567 17.9918 106.237 18.2029 105.957 18.4843C105.677 18.7457 105.447 19.0572 105.266 19.4191C105.106 19.7809 105.026 20.1729 105.026 20.5951V30.1538H100.762ZM131.8 30.1538V14.2024H136.064V30.1538H131.8ZM133.902 10.9157C133.081 10.9157 132.44 10.7146 131.98 10.3126C131.52 9.91054 131.289 9.33762 131.289 8.59382C131.289 7.91033 131.52 7.35751 131.98 6.93536C132.46 6.4931 133.101 6.27197 133.902 6.27197C134.722 6.27197 135.363 6.48305 135.823 6.9052C136.283 7.30725 136.514 7.87013 136.514 8.59382C136.514 9.29741 136.274 9.86028 135.793 10.2824C135.333 10.7046 134.703 10.9157 133.902 10.9157ZM142.793 30.1538V7.83997H147.057V30.1538H142.793ZM155.311 37.0892L158.794 28.8874L158.854 31.36L151.107 14.2024H155.942L159.815 23.3994C159.975 23.7411 160.125 24.1432 160.265 24.6055C160.425 25.0478 160.555 25.48 160.656 25.9021L159.935 26.2037C160.055 25.862 160.195 25.47 160.356 25.0277C160.515 24.5854 160.675 24.113 160.836 23.6104L164.169 14.2024H169.033L162.367 30.1538L159.635 37.0892H155.311ZM183.381 30.4554C181.84 30.4554 180.419 30.184 179.117 29.6412C177.816 29.0984 176.675 28.3446 175.694 27.3797C174.733 26.3946 173.993 25.2387 173.472 23.912C172.952 22.5651 172.691 21.1077 172.691 19.5397C172.691 17.9515 172.952 16.5041 173.472 15.1975C173.993 13.8707 174.733 12.7149 175.694 11.7298C176.675 10.7448 177.816 9.9809 179.117 9.43813C180.419 8.89536 181.84 8.62397 183.381 8.62397C184.942 8.62397 186.364 8.89536 187.645 9.43813C188.947 9.9809 190.077 10.7448 191.038 11.7298C192.019 12.7149 192.77 13.8707 193.29 15.1975C193.811 16.5243 194.071 17.9717 194.071 19.5397C194.071 21.1077 193.811 22.5551 193.29 23.8818C192.77 25.2086 192.019 26.3645 191.038 27.3495C190.077 28.3346 188.947 29.0984 187.645 29.6412C186.364 30.184 184.942 30.4554 183.381 30.4554ZM183.381 26.1735C184.263 26.1735 185.073 26.0127 185.813 25.6911C186.575 25.3694 187.225 24.9071 187.765 24.304C188.305 23.7009 188.726 22.9973 189.026 22.1932C189.347 21.3891 189.507 20.5046 189.507 19.5397C189.507 18.5747 189.347 17.6903 189.026 16.8861C188.726 16.082 188.305 15.3885 187.765 14.8055C187.225 14.2024 186.575 13.7401 185.813 13.4184C185.073 13.0767 184.263 12.9058 183.381 12.9058C182.501 12.9058 181.69 13.0767 180.949 13.4184C180.209 13.7401 179.558 14.2024 178.997 14.8055C178.437 15.3885 178.006 16.082 177.706 16.8861C177.426 17.6903 177.286 18.5747 177.286 19.5397C177.286 20.5046 177.426 21.3891 177.706 22.1932C178.006 22.9973 178.437 23.7009 178.997 24.304C179.558 24.9071 180.209 25.3694 180.949 25.6911C181.69 26.0127 182.501 26.1735 183.381 26.1735ZM199.692 30.1538V14.2024H203.776L203.896 17.4591L203.055 17.8209C203.275 17.0972 203.665 16.4438 204.226 15.8609C204.806 15.2578 205.497 14.7754 206.298 14.4135C207.098 14.0517 207.939 13.8707 208.82 13.8707C210.022 13.8707 211.022 14.112 211.823 14.5944C212.644 15.0769 213.254 15.8106 213.655 16.7957C214.075 17.7606 214.285 18.9567 214.285 20.384V30.1538H210.022V20.7157C210.022 19.992 209.921 19.3889 209.721 18.9064C209.521 18.424 209.211 18.0721 208.79 17.8511C208.389 17.6098 207.89 17.5093 207.289 17.5495C206.809 17.5495 206.358 17.63 205.938 17.7907C205.537 17.9315 205.187 18.1426 204.887 18.424C204.606 18.7054 204.376 19.0271 204.196 19.3889C204.035 19.7507 203.956 20.1427 203.956 20.5649V30.1538H201.854C201.393 30.1538 200.983 30.1538 200.623 30.1538C200.263 30.1538 199.952 30.1538 199.692 30.1538ZM228.053 30.4554C226.331 30.4554 224.829 30.1035 223.549 29.4C222.267 28.6964 221.267 27.7315 220.546 26.5052C219.825 25.2789 219.465 23.8718 219.465 22.2837C219.465 21.0574 219.665 19.9317 220.066 18.9064C220.466 17.8812 221.026 16.9967 221.747 16.2529C222.468 15.489 223.318 14.906 224.299 14.504C225.3 14.0818 226.381 13.8707 227.542 13.8707C228.623 13.8707 229.624 14.0718 230.545 14.4738C231.465 14.8558 232.257 15.4086 232.917 16.1323C233.597 16.8358 234.118 17.6701 234.479 18.6351C234.839 19.6 234.999 20.6554 234.959 21.8012L234.929 23.128H222.168L221.477 20.5046H231.416L230.935 21.0474V20.384C230.895 19.8412 230.715 19.3487 230.395 18.9064C230.095 18.4641 229.704 18.1224 229.224 17.8812C228.743 17.64 228.203 17.5194 227.602 17.5194C226.721 17.5194 225.97 17.6903 225.35 18.032C224.75 18.3737 224.289 18.8763 223.969 19.5397C223.649 20.203 223.489 21.0072 223.489 21.952C223.489 22.9169 223.688 23.7512 224.089 24.4547C224.51 25.1583 225.09 25.7112 225.831 26.1132C226.591 26.4952 227.482 26.6861 228.503 26.6861C229.204 26.6861 229.844 26.5755 230.425 26.3544C231.005 26.1333 231.626 25.7514 232.287 25.2086L234.329 28.0732C233.747 28.5958 233.107 29.0381 232.407 29.4C231.705 29.7417 230.985 30.0031 230.245 30.184C229.504 30.3649 228.773 30.4554 228.053 30.4554Z" fill="#1A1A1A" fill-opacity="0.5"/>
<path d="M67.9077 50.5378C67.9878 50.5378 68.0579 50.5704 68.1179 50.6358L68.6959 51.2615C68.2555 51.7741 67.7201 52.1737 67.0895 52.4601C66.464 52.7466 65.7058 52.8898 64.8149 52.8898C64.0442 52.8898 63.3436 52.7566 62.713 52.4903C62.0825 52.2189 61.5444 51.842 61.0991 51.3595C60.6537 50.872 60.3084 50.289 60.0631 49.6106C59.8179 48.9321 59.6953 48.1858 59.6953 47.3717C59.6953 46.5575 59.8229 45.8112 60.0782 45.1327C60.3334 44.4543 60.6912 43.8713 61.1516 43.3838C61.617 42.8963 62.1726 42.5194 62.8181 42.253C63.4637 41.9817 64.1769 41.846 64.9576 41.846C65.7233 41.846 66.3989 41.9691 66.9844 42.2153C67.5699 42.4616 68.0854 42.7958 68.5308 43.218L68.0504 43.8889C68.0203 43.9392 67.9803 43.9818 67.9303 44.017C67.8852 44.0472 67.8227 44.0623 67.7426 44.0623C67.6525 44.0623 67.5424 44.0146 67.4123 43.919C67.2822 43.8186 67.112 43.708 66.9018 43.5873C66.6916 43.4667 66.4289 43.3587 66.1136 43.2632C65.7983 43.1627 65.4104 43.1124 64.9501 43.1124C64.3946 43.1124 63.8866 43.2104 63.4262 43.4064C62.9658 43.5974 62.5679 43.8763 62.2326 44.2432C61.9023 44.6101 61.6446 45.0573 61.4594 45.585C61.2742 46.1127 61.1817 46.7083 61.1817 47.3717C61.1817 48.0451 61.2768 48.6457 61.4669 49.1733C61.6621 49.701 61.9248 50.1483 62.2551 50.5152C62.5905 50.877 62.9833 51.1535 63.4337 51.3444C63.8891 51.5354 64.3795 51.6309 64.905 51.6309C65.2253 51.6309 65.5131 51.6133 65.7683 51.5781C66.0286 51.5379 66.2662 51.4776 66.4814 51.3972C66.7016 51.3167 66.9043 51.2163 67.0895 51.0957C67.2796 50.97 67.4673 50.8218 67.6525 50.6509C67.7375 50.5755 67.8227 50.5378 67.9077 50.5378ZM75.38 45.0121C75.9355 45.0121 76.436 45.1051 76.8814 45.291C77.3268 45.477 77.7071 45.7409 78.0224 46.0826C78.3377 46.4243 78.5779 46.8389 78.743 47.3264C78.9132 47.8089 78.9983 48.3492 78.9983 48.9472C78.9983 49.5503 78.9132 50.093 78.743 50.5755C78.5779 51.058 78.3377 51.4701 78.0224 51.8118C77.7071 52.1535 77.3268 52.4174 76.8814 52.6033C76.436 52.7843 75.9355 52.8747 75.38 52.8747C74.8196 52.8747 74.314 52.7843 73.8636 52.6033C73.4183 52.4174 73.0379 52.1535 72.7226 51.8118C72.4073 51.4701 72.1646 51.058 71.9944 50.5755C71.8293 50.093 71.7467 49.5503 71.7467 48.9472C71.7467 48.3492 71.8293 47.8089 71.9944 47.3264C72.1646 46.8389 72.4073 46.4243 72.7226 46.0826C73.0379 45.7409 73.4183 45.477 73.8636 45.291C74.314 45.1051 74.8196 45.0121 75.38 45.0121ZM75.38 51.8269C76.1307 51.8269 76.6912 51.5756 77.0615 51.073C77.4319 50.5655 77.617 49.8593 77.617 48.9547C77.617 48.0451 77.4319 47.3364 77.0615 46.8289C76.6912 46.3213 76.1307 46.0675 75.38 46.0675C74.9997 46.0675 74.6669 46.1329 74.3816 46.2635C74.1014 46.3941 73.8662 46.5826 73.6759 46.8289C73.4909 47.0752 73.3507 47.3792 73.2556 47.741C73.1655 48.0978 73.1205 48.5024 73.1205 48.9547C73.1205 49.8593 73.3057 50.5655 73.6759 51.073C74.0513 51.5756 74.6193 51.8269 75.38 51.8269ZM84.2063 46.2409C84.3714 46.0549 84.5465 45.8866 84.7317 45.7358C84.9169 45.585 85.1121 45.4569 85.3173 45.3513C85.5275 45.2407 85.7476 45.1578 85.9779 45.1026C86.213 45.0423 86.4658 45.0121 86.736 45.0121C87.1514 45.0121 87.5168 45.0824 87.832 45.2232C88.1524 45.3589 88.4176 45.5549 88.6278 45.8112C88.843 46.0624 89.0056 46.3666 89.1157 46.7233C89.2258 47.0801 89.2808 47.4747 89.2808 47.9069V52.7692H87.9371V47.9069C87.9371 47.3289 87.8045 46.8817 87.5393 46.565C87.279 46.2434 86.8811 46.0826 86.3457 46.0826C85.9503 46.0826 85.58 46.1781 85.2347 46.369C84.8944 46.56 84.5791 46.8189 84.2888 47.1455V52.7692H82.9451V45.1327H83.7483C83.9385 45.1327 84.0561 45.2257 84.1012 45.4117L84.2063 46.2409ZM98.6585 48.118C98.6585 47.8064 98.6135 47.5224 98.5234 47.2661C98.4384 47.0047 98.3108 46.7812 98.1406 46.5952C97.9754 46.4043 97.7727 46.2584 97.5325 46.158C97.2923 46.0524 97.0196 45.9997 96.7143 45.9997C96.0737 45.9997 95.5657 46.1881 95.1904 46.565C94.8201 46.9369 94.5899 47.4546 94.4998 48.118H98.6585ZM99.7395 51.6987C99.5744 51.8998 99.3767 52.0757 99.1465 52.2264C98.9163 52.3721 98.6686 52.4927 98.4033 52.5883C98.1432 52.6838 97.8729 52.7541 97.5926 52.7993C97.3124 52.8496 97.0346 52.8747 96.7593 52.8747C96.2338 52.8747 95.7485 52.7867 95.303 52.6109C94.8627 52.43 94.4798 52.1686 94.1545 51.8269C93.8342 51.4801 93.584 51.0529 93.4038 50.5453C93.2236 50.0378 93.1335 49.4547 93.1335 48.7964C93.1335 48.2637 93.2137 47.7661 93.3738 47.3038C93.5389 46.8415 93.7742 46.4419 94.0794 46.1052C94.3847 45.7635 94.7576 45.4971 95.1979 45.3061C95.6383 45.1101 96.1338 45.0121 96.6843 45.0121C97.1397 45.0121 97.5601 45.09 97.9454 45.2458C98.3358 45.3966 98.6711 45.6177 98.9513 45.9092C99.2366 46.1957 99.4593 46.5524 99.6194 46.9797C99.7796 47.4018 99.8596 47.8843 99.8596 48.427C99.8596 48.6381 99.8371 48.7789 99.7921 48.8492C99.747 48.9195 99.662 48.9547 99.5368 48.9547H94.4547C94.4697 49.4372 94.5349 49.8569 94.6499 50.2137C94.77 50.5704 94.9352 50.8695 95.1454 51.1107C95.3556 51.3469 95.6059 51.5253 95.896 51.646C96.1863 51.7615 96.5116 51.8193 96.8719 51.8193C97.2073 51.8193 97.495 51.7817 97.7352 51.7063C97.9805 51.6258 98.1907 51.5404 98.3658 51.45C98.541 51.3595 98.6861 51.2766 98.8012 51.2012C98.9213 51.1207 99.0239 51.0806 99.1089 51.0806C99.2191 51.0806 99.3041 51.1233 99.3642 51.2087L99.7395 51.6987ZM109.045 46.4897C109.005 46.5449 108.966 46.5877 108.925 46.6178C108.885 46.648 108.83 46.663 108.76 46.663C108.685 46.663 108.602 46.6329 108.512 46.5726C108.422 46.5072 108.309 46.4369 108.174 46.3615C108.044 46.2861 107.881 46.2183 107.686 46.158C107.496 46.0926 107.262 46.06 106.981 46.06C106.606 46.06 106.275 46.1278 105.99 46.2635C105.705 46.3941 105.465 46.5852 105.269 46.8364C105.079 47.0877 104.934 47.3918 104.834 47.7486C104.739 48.1054 104.691 48.5049 104.691 48.9472C104.691 49.4095 104.744 49.8217 104.849 50.1835C104.954 50.5403 105.102 50.8418 105.292 51.0881C105.487 51.3293 105.72 51.5153 105.99 51.646C106.265 51.7716 106.573 51.8344 106.913 51.8344C107.239 51.8344 107.506 51.7967 107.716 51.7213C107.926 51.6409 108.099 51.553 108.234 51.4575C108.375 51.362 108.489 51.2766 108.58 51.2012C108.675 51.1207 108.767 51.0806 108.857 51.0806C108.968 51.0806 109.052 51.1233 109.112 51.2087L109.488 51.6987C109.323 51.9047 109.135 52.0807 108.925 52.2264C108.715 52.3721 108.487 52.4953 108.242 52.5958C108.001 52.6913 107.749 52.7617 107.484 52.8069C107.219 52.8521 106.948 52.8747 106.673 52.8747C106.198 52.8747 105.755 52.7867 105.344 52.6109C104.939 52.435 104.586 52.1812 104.286 51.8495C103.986 51.5127 103.751 51.1007 103.58 50.6132C103.41 50.1257 103.325 49.5704 103.325 48.9472C103.325 48.3793 103.403 47.8541 103.558 47.3717C103.718 46.8892 103.948 46.4746 104.248 46.1278C104.554 45.776 104.927 45.5021 105.367 45.3061C105.812 45.1101 106.323 45.0121 106.898 45.0121C107.434 45.0121 107.904 45.1001 108.309 45.276C108.72 45.4469 109.082 45.6906 109.398 46.0072L109.045 46.4897ZM115.509 52.8898C114.909 52.8898 114.446 52.7215 114.121 52.3847C113.8 52.048 113.64 51.563 113.64 50.9298V46.256H112.724C112.644 46.256 112.576 46.2333 112.522 46.1881C112.467 46.1378 112.439 46.0624 112.439 45.962V45.4267L113.685 45.2684L113.993 42.9089C114.008 42.8335 114.04 42.7732 114.091 42.728C114.145 42.6777 114.216 42.6526 114.301 42.6526H114.976V45.2835H117.176V46.256H114.976V50.8393C114.976 51.161 115.054 51.3997 115.209 51.5555C115.365 51.7113 115.564 51.7892 115.81 51.7892C115.95 51.7892 116.07 51.7716 116.17 51.7364C116.275 51.6963 116.365 51.6535 116.44 51.6083C116.515 51.563 116.577 51.5229 116.628 51.4877C116.683 51.4475 116.731 51.4274 116.77 51.4274C116.84 51.4274 116.903 51.4701 116.958 51.5555L117.349 52.1963C117.118 52.4124 116.84 52.5832 116.515 52.7089C116.19 52.8295 115.855 52.8898 115.509 52.8898ZM124.928 49.3317C124.313 49.3518 123.787 49.402 123.352 49.4824C122.922 49.5578 122.569 49.6583 122.293 49.784C122.023 49.9096 121.826 50.0578 121.7 50.2287C121.58 50.3996 121.52 50.5906 121.52 50.8017C121.52 51.0027 121.553 51.1761 121.618 51.3218C121.683 51.4675 121.771 51.5881 121.88 51.6837C121.996 51.7741 122.128 51.842 122.278 51.8872C122.434 51.9274 122.599 51.9475 122.774 51.9475C123.01 51.9475 123.224 51.9249 123.419 51.8797C123.615 51.8294 123.798 51.759 123.967 51.6686C124.143 51.5781 124.308 51.4701 124.463 51.3444C124.624 51.2187 124.778 51.0755 124.928 50.9147V49.3317ZM120.612 46.2107C121.032 45.8037 121.486 45.4996 121.971 45.2986C122.456 45.0975 122.995 44.997 123.585 44.997C124.01 44.997 124.388 45.0674 124.718 45.2081C125.048 45.3489 125.326 45.5449 125.551 45.7961C125.776 46.0474 125.947 46.3515 126.062 46.7083C126.178 47.0651 126.234 47.4571 126.234 47.8843V52.7692H125.641C125.512 52.7692 125.412 52.7491 125.341 52.7089C125.271 52.6637 125.217 52.5783 125.176 52.4526L125.026 51.7289C124.826 51.9149 124.631 52.0807 124.44 52.2264C124.25 52.3672 124.05 52.4878 123.84 52.5883C123.63 52.6838 123.404 52.7566 123.164 52.8069C122.929 52.8621 122.667 52.8898 122.376 52.8898C122.081 52.8898 121.803 52.8496 121.543 52.7692C121.283 52.6838 121.055 52.5581 120.86 52.3923C120.67 52.2264 120.517 52.0178 120.402 51.7666C120.292 51.5103 120.236 51.2087 120.236 50.862C120.236 50.5604 120.319 50.2715 120.484 49.995C120.649 49.7136 120.917 49.4649 121.287 49.2487C121.658 49.0326 122.141 48.8567 122.736 48.721C123.332 48.5803 124.063 48.4999 124.928 48.4798V47.8843C124.928 47.2912 124.801 46.844 124.545 46.5424C124.29 46.2358 123.918 46.0826 123.427 46.0826C123.097 46.0826 122.819 46.1253 122.594 46.2107C122.374 46.2912 122.181 46.3841 122.016 46.4897C121.856 46.5901 121.715 46.6832 121.595 46.7686C121.48 46.849 121.366 46.8892 121.25 46.8892C121.16 46.8892 121.083 46.8666 121.017 46.8213C120.953 46.7711 120.897 46.7107 120.852 46.6404L120.612 46.2107ZM131.783 46.2409C131.948 46.0549 132.124 45.8866 132.308 45.7358C132.494 45.585 132.689 45.4569 132.894 45.3513C133.104 45.2407 133.325 45.1578 133.555 45.1026C133.791 45.0423 134.043 45.0121 134.313 45.0121C134.729 45.0121 135.093 45.0824 135.409 45.2232C135.729 45.3589 135.994 45.5549 136.204 45.8112C136.42 46.0624 136.583 46.3666 136.692 46.7233C136.803 47.0801 136.858 47.4747 136.858 47.9069V52.7692H135.514V47.9069C135.514 47.3289 135.382 46.8817 135.116 46.565C134.856 46.2434 134.459 46.0826 133.922 46.0826C133.528 46.0826 133.157 46.1781 132.811 46.369C132.471 46.56 132.156 46.8189 131.866 47.1455V52.7692H130.522V45.1327H131.325C131.516 45.1327 131.633 45.2257 131.678 45.4117L131.783 46.2409ZM146.101 46.9495C145.851 46.6127 145.58 46.3791 145.29 46.2484C144.999 46.1127 144.674 46.0449 144.314 46.0449C143.608 46.0449 143.066 46.2987 142.685 46.8063C142.304 47.3138 142.114 48.0375 142.114 48.9773C142.114 49.4749 142.157 49.9021 142.242 50.2589C142.327 50.6107 142.452 50.9021 142.617 51.1333C142.783 51.3595 142.985 51.5253 143.225 51.6309C143.466 51.7364 143.738 51.7892 144.044 51.7892C144.484 51.7892 144.867 51.6887 145.192 51.4877C145.523 51.2866 145.825 51.0027 146.101 50.6358V46.9495ZM147.437 41.665V52.7692H146.641C146.451 52.7692 146.331 52.6763 146.281 52.4903L146.161 51.563C145.836 51.955 145.465 52.2717 145.05 52.5129C144.635 52.7541 144.154 52.8747 143.608 52.8747C143.173 52.8747 142.777 52.7918 142.422 52.626C142.067 52.4551 141.764 52.2063 141.514 51.8797C141.264 51.553 141.071 51.1459 140.936 50.6584C140.801 50.1709 140.733 49.6106 140.733 48.9773C140.733 48.4144 140.808 47.8918 140.958 47.4093C141.109 46.9218 141.324 46.4997 141.604 46.1429C141.884 45.7861 142.227 45.5072 142.632 45.3061C143.043 45.1001 143.503 44.997 144.014 44.997C144.479 44.997 144.877 45.0775 145.207 45.2383C145.543 45.3941 145.84 45.6127 146.101 45.8941V41.665H147.437ZM155.005 45.0121C155.56 45.0121 156.061 45.1051 156.506 45.291C156.951 45.477 157.332 45.7409 157.647 46.0826C157.962 46.4243 158.203 46.8389 158.368 47.3264C158.538 47.8089 158.623 48.3492 158.623 48.9472C158.623 49.5503 158.538 50.093 158.368 50.5755C158.203 51.058 157.962 51.4701 157.647 51.8118C157.332 52.1535 156.951 52.4174 156.506 52.6033C156.061 52.7843 155.56 52.8747 155.005 52.8747C154.444 52.8747 153.939 52.7843 153.488 52.6033C153.043 52.4174 152.663 52.1535 152.347 51.8118C152.032 51.4701 151.79 51.058 151.619 50.5755C151.454 50.093 151.371 49.5503 151.371 48.9472C151.371 48.3492 151.454 47.8089 151.619 47.3264C151.79 46.8389 152.032 46.4243 152.347 46.0826C152.663 45.7409 153.043 45.477 153.488 45.291C153.939 45.1051 154.444 45.0121 155.005 45.0121ZM155.005 51.8269C155.755 51.8269 156.316 51.5756 156.686 51.073C157.056 50.5655 157.242 49.8593 157.242 48.9547C157.242 48.0451 157.056 47.3364 156.686 46.8289C156.316 46.3213 155.755 46.0675 155.005 46.0675C154.624 46.0675 154.292 46.1329 154.006 46.2635C153.726 46.3941 153.49 46.5826 153.301 46.8289C153.115 47.0752 152.976 47.3792 152.88 47.741C152.79 48.0978 152.745 48.5024 152.745 48.9547C152.745 49.8593 152.931 50.5655 153.301 51.073C153.676 51.5756 154.244 51.8269 155.005 51.8269ZM170.434 43.1577V46.9344H174.856V48.1255H170.434V52.7692H168.978V41.9666H175.607V43.1577H170.434ZM182.455 49.3317C181.839 49.3518 181.314 49.402 180.878 49.4824C180.448 49.5578 180.096 49.6583 179.82 49.784C179.55 49.9096 179.352 50.0578 179.227 50.2287C179.107 50.3996 179.047 50.5906 179.047 50.8017C179.047 51.0027 179.08 51.1761 179.144 51.3218C179.21 51.4675 179.298 51.5881 179.407 51.6837C179.523 51.7741 179.655 51.842 179.805 51.8872C179.96 51.9274 180.126 51.9475 180.3 51.9475C180.536 51.9475 180.751 51.9249 180.946 51.8797C181.141 51.8294 181.325 51.759 181.494 51.6686C181.67 51.5781 181.835 51.4701 181.989 51.3444C182.15 51.2187 182.305 51.0755 182.455 50.9147V49.3317ZM178.138 46.2107C178.559 45.8037 179.012 45.4996 179.497 45.2986C179.983 45.0975 180.521 44.997 181.111 44.997C181.537 44.997 181.914 45.0674 182.245 45.2081C182.575 45.3489 182.853 45.5449 183.078 45.7961C183.303 46.0474 183.474 46.3515 183.588 46.7083C183.704 47.0651 183.761 47.4571 183.761 47.8843V52.7692H183.168C183.038 52.7692 182.939 52.7491 182.868 52.7089C182.798 52.6637 182.743 52.5783 182.703 52.4526L182.552 51.7289C182.353 51.9149 182.158 52.0807 181.967 52.2264C181.777 52.3672 181.577 52.4878 181.366 52.5883C181.156 52.6838 180.931 52.7566 180.691 52.8069C180.456 52.8621 180.193 52.8898 179.903 52.8898C179.608 52.8898 179.33 52.8496 179.069 52.7692C178.81 52.6838 178.581 52.5581 178.386 52.3923C178.196 52.2264 178.044 52.0178 177.928 51.7666C177.819 51.5103 177.763 51.2087 177.763 50.862C177.763 50.5604 177.846 50.2715 178.011 49.995C178.176 49.7136 178.444 49.4649 178.814 49.2487C179.185 49.0326 179.668 48.8567 180.263 48.721C180.859 48.5803 181.589 48.4999 182.455 48.4798V47.8843C182.455 47.2912 182.327 46.844 182.072 46.5424C181.817 46.2358 181.445 46.0826 180.954 46.0826C180.623 46.0826 180.345 46.1253 180.12 46.2107C179.9 46.2912 179.707 46.3841 179.542 46.4897C179.382 46.5901 179.242 46.6832 179.122 46.7686C179.007 46.849 178.892 46.8892 178.777 46.8892C178.686 46.8892 178.609 46.8666 178.544 46.8213C178.479 46.7711 178.424 46.7107 178.379 46.6404L178.138 46.2107ZM188.049 52.7692V45.1327H188.852C189.043 45.1327 189.16 45.2257 189.205 45.4117L189.302 46.1957C189.583 45.8489 189.898 45.5649 190.248 45.3438C190.599 45.1227 191.004 45.0121 191.464 45.0121C191.975 45.0121 192.387 45.1553 192.703 45.4418C193.023 45.7283 193.254 46.1152 193.393 46.6027C193.504 46.3263 193.644 46.0876 193.814 45.8866C193.99 45.6855 194.185 45.5197 194.399 45.389C194.615 45.2584 194.842 45.1629 195.082 45.1026C195.328 45.0423 195.576 45.0121 195.826 45.0121C196.227 45.0121 196.582 45.0775 196.891 45.2081C197.207 45.3338 197.473 45.5197 197.687 45.766C197.908 46.0123 198.075 46.3163 198.19 46.6781C198.306 47.0349 198.363 47.4446 198.363 47.9069V52.7692H197.019V47.9069C197.019 47.3089 196.889 46.8566 196.629 46.55C196.369 46.2384 195.994 46.0826 195.503 46.0826C195.283 46.0826 195.073 46.1227 194.872 46.2032C194.677 46.2786 194.504 46.3917 194.354 46.5424C194.204 46.6932 194.084 46.8841 193.994 47.1153C193.909 47.3415 193.866 47.6053 193.866 47.9069V52.7692H192.523V47.9069C192.523 47.2938 192.4 46.8364 192.155 46.5349C191.91 46.2333 191.552 46.0826 191.081 46.0826C190.751 46.0826 190.446 46.173 190.165 46.354C189.886 46.5298 189.628 46.7711 189.392 47.0777V52.7692H188.049ZM204.057 45.1327V52.7692H202.721V45.1327H204.057ZM204.343 42.7355C204.343 42.8661 204.315 42.9893 204.26 43.1049C204.21 43.2155 204.14 43.316 204.05 43.4064C203.965 43.4918 203.862 43.5597 203.742 43.61C203.627 43.6603 203.504 43.6853 203.374 43.6853C203.244 43.6853 203.121 43.6603 203.006 43.61C202.896 43.5597 202.798 43.4918 202.714 43.4064C202.629 43.316 202.561 43.2155 202.511 43.1049C202.46 42.9893 202.436 42.8661 202.436 42.7355C202.436 42.6049 202.46 42.4817 202.511 42.3661C202.561 42.2455 202.629 42.1424 202.714 42.057C202.798 41.9666 202.896 41.8963 203.006 41.846C203.121 41.7957 203.244 41.7706 203.374 41.7706C203.504 41.7706 203.627 41.7957 203.742 41.846C203.862 41.8963 203.965 41.9666 204.05 42.057C204.14 42.1424 204.21 42.2455 204.26 42.3661C204.315 42.4817 204.343 42.6049 204.343 42.7355ZM209.886 41.665V52.7692H208.55V41.665H209.886ZM215.716 45.1327V52.7692H214.38V45.1327H215.716ZM216.002 42.7355C216.002 42.8661 215.974 42.9893 215.919 43.1049C215.869 43.2155 215.799 43.316 215.709 43.4064C215.624 43.4918 215.521 43.5597 215.401 43.61C215.286 43.6603 215.163 43.6853 215.033 43.6853C214.904 43.6853 214.78 43.6603 214.665 43.61C214.555 43.5597 214.457 43.4918 214.373 43.4064C214.288 43.316 214.22 43.2155 214.17 43.1049C214.12 42.9893 214.095 42.8661 214.095 42.7355C214.095 42.6049 214.12 42.4817 214.17 42.3661C214.22 42.2455 214.288 42.1424 214.373 42.057C214.457 41.9666 214.555 41.8963 214.665 41.846C214.78 41.7957 214.904 41.7706 215.033 41.7706C215.163 41.7706 215.286 41.7957 215.401 41.846C215.521 41.8963 215.624 41.9666 215.709 42.057C215.799 42.1424 215.869 42.2455 215.919 42.3661C215.974 42.4817 216.002 42.6049 216.002 42.7355ZM224.285 49.3317C223.669 49.3518 223.144 49.402 222.708 49.4824C222.278 49.5578 221.926 49.6583 221.65 49.784C221.38 49.9096 221.182 50.0578 221.057 50.2287C220.937 50.3996 220.877 50.5906 220.877 50.8017C220.877 51.0027 220.91 51.1761 220.974 51.3218C221.04 51.4675 221.128 51.5881 221.237 51.6837C221.353 51.7741 221.485 51.842 221.635 51.8872C221.79 51.9274 221.956 51.9475 222.13 51.9475C222.366 51.9475 222.581 51.9249 222.776 51.8797C222.971 51.8294 223.155 51.759 223.324 51.6686C223.5 51.5781 223.665 51.4701 223.819 51.3444C223.98 51.2187 224.135 51.0755 224.285 50.9147V49.3317ZM219.968 46.2107C220.389 45.8037 220.842 45.4996 221.327 45.2986C221.813 45.0975 222.351 44.997 222.941 44.997C223.367 44.997 223.744 45.0674 224.075 45.2081C224.405 45.3489 224.683 45.5449 224.908 45.7961C225.133 46.0474 225.304 46.3515 225.418 46.7083C225.534 47.0651 225.591 47.4571 225.591 47.8843V52.7692H224.998C224.868 52.7692 224.768 52.7491 224.698 52.7089C224.628 52.6637 224.573 52.5783 224.533 52.4526L224.382 51.7289C224.183 51.9149 223.988 52.0807 223.797 52.2264C223.607 52.3672 223.407 52.4878 223.196 52.5883C222.986 52.6838 222.761 52.7566 222.521 52.8069C222.286 52.8621 222.023 52.8898 221.733 52.8898C221.438 52.8898 221.16 52.8496 220.899 52.7692C220.64 52.6838 220.411 52.5581 220.216 52.3923C220.026 52.2264 219.874 52.0178 219.758 51.7666C219.649 51.5103 219.593 51.2087 219.593 50.862C219.593 50.5604 219.676 50.2715 219.841 49.995C220.006 49.7136 220.274 49.4649 220.644 49.2487C221.015 49.0326 221.498 48.8567 222.093 48.721C222.689 48.5803 223.419 48.4999 224.285 48.4798V47.8843C224.285 47.2912 224.157 46.844 223.902 46.5424C223.647 46.2358 223.275 46.0826 222.783 46.0826C222.453 46.0826 222.175 46.1253 221.95 46.2107C221.73 46.2912 221.537 46.3841 221.372 46.4897C221.212 46.5901 221.072 46.6832 220.952 46.7686C220.837 46.849 220.722 46.8892 220.607 46.8892C220.516 46.8892 220.439 46.8666 220.374 46.8213C220.309 46.7711 220.254 46.7107 220.209 46.6404L219.968 46.2107ZM234.307 46.3917C234.247 46.5023 234.155 46.5575 234.03 46.5575C233.955 46.5575 233.87 46.5298 233.774 46.4746C233.68 46.4193 233.562 46.359 233.422 46.2937C233.287 46.2233 233.125 46.1604 232.934 46.1052C232.744 46.0449 232.519 46.0147 232.258 46.0147C232.033 46.0147 231.83 46.0449 231.65 46.1052C231.47 46.1604 231.315 46.2384 231.185 46.3389C231.06 46.4394 230.963 46.5575 230.892 46.6932C230.828 46.8238 230.794 46.9671 230.794 47.1229C230.794 47.3189 230.85 47.4823 230.959 47.6129C231.075 47.7435 231.225 47.8566 231.41 47.9521C231.595 48.0476 231.806 48.133 232.04 48.2084C232.276 48.2787 232.517 48.3567 232.761 48.4421C233.012 48.5226 233.254 48.613 233.489 48.7135C233.725 48.814 233.935 48.9397 234.12 49.0904C234.305 49.2412 234.453 49.4272 234.563 49.6483C234.679 49.8644 234.735 50.1257 234.735 50.4323C234.735 50.7841 234.673 51.1107 234.548 51.4123C234.423 51.7087 234.238 51.9676 233.992 52.1887C233.748 52.4049 233.447 52.5757 233.091 52.7013C232.736 52.827 232.326 52.8898 231.86 52.8898C231.33 52.8898 230.85 52.8044 230.419 52.6335C229.989 52.4576 229.623 52.234 229.323 51.9626L229.638 51.45C229.679 51.3846 229.726 51.3344 229.781 51.2992C229.837 51.264 229.906 51.2464 229.991 51.2464C230.081 51.2464 230.177 51.2816 230.276 51.352C230.377 51.4223 230.497 51.5003 230.637 51.5857C230.783 51.6711 230.957 51.749 231.162 51.8193C231.368 51.8897 231.623 51.9249 231.928 51.9249C232.188 51.9249 232.416 51.8923 232.611 51.8269C232.806 51.7566 232.969 51.6635 233.099 51.548C233.23 51.4324 233.324 51.2992 233.384 51.1484C233.45 50.9977 233.482 50.8369 233.482 50.666C233.482 50.4549 233.425 50.2815 233.309 50.1458C233.2 50.0051 233.052 49.887 232.866 49.7915C232.682 49.691 232.468 49.6055 232.228 49.5352C231.993 49.4598 231.751 49.3819 231.5 49.3015C231.255 49.2211 231.012 49.1306 230.772 49.0301C230.537 48.9246 230.327 48.7939 230.141 48.6381C229.957 48.4823 229.807 48.2913 229.691 48.0652C229.581 47.834 229.526 47.5551 229.526 47.2284C229.526 46.9369 229.586 46.658 229.706 46.3917C229.826 46.1203 230.002 45.8841 230.231 45.683C230.462 45.477 230.745 45.3137 231.08 45.193C231.415 45.0724 231.798 45.0121 232.228 45.0121C232.729 45.0121 233.177 45.0926 233.572 45.2533C233.973 45.4092 234.318 45.6252 234.608 45.9017L234.307 46.3917Z" fill="#1A1A1A" fill-opacity="0.5"/>
<path d="M2.14453 21.409C2.14453 20.4091 2.60556 19.4656 3.39306 18.8537L24.3048 2.6064C25.464 1.70575 27.0829 1.70575 28.2422 2.6064L49.154 18.8537C49.9414 19.4656 50.4024 20.4091 50.4024 21.409V49.2834C50.4024 50.7039 49.8375 52.0662 48.8319 53.0708C47.8264 54.0752 46.4626 54.6396 45.0405 54.6396H7.50652C6.08444 54.6396 4.72059 54.0752 3.71503 53.0708C2.70945 52.0662 2.14453 50.7039 2.14453 49.2834V21.409Z" stroke="url(#paint0_linear_1924_16183)" stroke-opacity="0.8" stroke-width="2.5" stroke-linecap="round" stroke-linejoin="round"/>
<path d="M38.0892 23.7368C37.4065 23.0219 36.596 22.4548 35.7039 22.068C34.8117 21.6811 33.8555 21.4819 32.8899 21.4819C31.9242 21.4819 30.968 21.6811 30.0758 22.068C29.1838 22.4548 28.3732 23.0219 27.6905 23.7368L27.4345 24.0048C26.8014 24.6675 25.7461 24.6675 25.113 24.0048L24.857 23.7368C23.478 22.2935 21.6077 21.4827 19.6577 21.4827C17.7075 21.4827 15.8373 22.2935 14.4584 23.7368C13.0794 25.1802 12.3047 27.1377 12.3047 29.1789C12.3047 31.22 13.0794 33.1776 14.4584 34.6209L15.8751 36.1039L25.113 45.773C25.7461 46.4357 26.8014 46.4357 27.4345 45.773L36.6724 36.1039L38.0892 34.6209C38.7721 33.9064 39.314 33.058 39.6837 32.1242C40.0532 31.1905 40.2436 30.1896 40.2436 29.1789C40.2436 28.1681 40.0532 27.1673 39.6837 26.2335C39.314 25.2997 38.7721 24.4513 38.0892 23.7368Z" stroke="url(#paint1_linear_1924_16183)" stroke-opacity="0.8" stroke-width="2.5" stroke-linecap="round" stroke-linejoin="round"/>
<defs>
<linearGradient id="paint0_linear_1924_16183" x1="26.2735" y1="1.07684" x2="26.2735" y2="54.6396" gradientUnits="userSpaceOnUse">
<stop stop-color="#FF8A00"/>
<stop offset="0.5" stop-color="#B2F28F"/>
<stop offset="1" stop-color="#009DC9"/>
</linearGradient>
<linearGradient id="paint1_linear_1924_16183" x1="26.2741" y1="21.4819" x2="26.2741" y2="46.988" gradientUnits="userSpaceOnUse">
<stop stop-color="#FF8A00"/>
<stop offset="0.5" stop-color="#B2F28F"/>
<stop offset="1" stop-color="#009DC9"/>
</linearGradient>
</defs>
</svg>
