<svg width="191" height="40" viewBox="0 0 191 40" fill="none" xmlns="http://www.w3.org/2000/svg">
<g clip-path="url(#clip0_439_1861)">
<path d="M1.55273 15.2922C1.55273 14.578 1.88652 13.9041 2.45668 13.467L17.5969 1.86176C18.4362 1.21844 19.6083 1.21844 20.4476 1.86176L35.5878 13.467C36.158 13.9041 36.4918 14.578 36.4918 15.2922V35.2025C36.4918 36.2171 36.0827 37.1902 35.3547 37.9078C34.6267 38.6252 33.6393 39.0283 32.6096 39.0283H5.43485C4.40525 39.0283 3.41782 38.6252 2.68978 37.9078C1.96174 37.1902 1.55273 36.2171 1.55273 35.2025V15.2922Z" stroke="url(#paint0_linear_439_1861)" stroke-width="2.5" stroke-linecap="round" stroke-linejoin="round"/>
<path d="M27.5765 16.9547C27.0823 16.4441 26.4954 16.039 25.8495 15.7627C25.2036 15.4863 24.5114 15.3441 23.8122 15.3441C23.113 15.3441 22.4208 15.4863 21.7749 15.7627C21.129 16.039 20.5421 16.4441 20.0479 16.9547L19.8625 17.1462C19.4041 17.6195 18.6401 17.6195 18.1817 17.1462L17.9963 16.9547C16.998 15.9238 15.6439 15.3447 14.232 15.3447C12.8201 15.3447 11.4661 15.9238 10.4677 16.9547C9.46934 17.9857 8.90845 19.384 8.90845 20.842C8.90845 22.2999 9.46934 23.6982 10.4677 24.7291L11.4935 25.7883L18.1817 32.6949C18.6401 33.1683 19.4041 33.1683 19.8625 32.6949L26.5508 25.7883L27.5765 24.7291C28.071 24.2187 28.4633 23.6127 28.7309 22.9457C28.9985 22.2788 29.1363 21.5639 29.1363 20.842C29.1363 20.12 28.9985 19.4051 28.7309 18.7381C28.4633 18.0711 28.071 17.4651 27.5765 16.9547Z" stroke="url(#paint1_linear_439_1861)" stroke-width="2.5" stroke-linecap="round" stroke-linejoin="round"/>
</g>
<defs>
<linearGradient id="paint0_linear_439_1861" x1="19.0222" y1="0.769226" x2="19.0222" y2="39.0283" gradientUnits="userSpaceOnUse">
<stop stop-color="#FFBD70"/>
<stop offset="0.5" stop-color="#B2F28F"/>
<stop offset="1" stop-color="#009DC9"/>
</linearGradient>
<linearGradient id="paint1_linear_439_1861" x1="19.0224" y1="15.3441" x2="19.0224" y2="33.5627" gradientUnits="userSpaceOnUse">
<stop stop-color="#FFBD70"/>
<stop offset="0.5" stop-color="#B2F28F"/>
<stop offset="1" stop-color="#009DC9"/>
</linearGradient>
<clipPath id="clip0_439_1861">
<rect width="191" height="40" fill="white"/>
</clipPath>
</defs>
</svg>
