<svg width="25" height="25" viewBox="0 0 25 25" fill="none" xmlns="http://www.w3.org/2000/svg">
<path d="M12.52 21.03C10.19 21.03 7.86001 20.66 5.65001 19.92C4.81001 19.63 4.17001 19.04 3.89001 18.27C3.60001 17.5 3.70001 16.65 4.16001 15.89L5.31001 13.98C5.55001 13.58 5.77001 12.78 5.77001 12.31V9.42004C5.77001 5.70004 8.80001 2.67004 12.52 2.67004C16.24 2.67004 19.27 5.70004 19.27 9.42004V12.31C19.27 12.77 19.49 13.58 19.73 13.99L20.87 15.89C21.3 16.61 21.38 17.48 21.09 18.27C20.8 19.06 20.17 19.66 19.38 19.92C17.18 20.66 14.85 21.03 12.52 21.03ZM12.52 4.17004C9.63001 4.17004 7.27001 6.52004 7.27001 9.42004V12.31C7.27001 13.04 6.97001 14.12 6.60001 14.75L5.45001 16.66C5.23001 17.03 5.17001 17.42 5.30001 17.75C5.42001 18.09 5.72001 18.35 6.13001 18.49C10.31 19.89 14.74 19.89 18.92 18.49C19.28 18.37 19.56 18.1 19.69 17.74C19.82 17.38 19.79 16.99 19.59 16.66L18.44 14.75C18.06 14.1 17.77 13.03 17.77 12.3V9.42004C17.77 6.52004 15.42 4.17004 12.52 4.17004Z" fill="#1A1A1A"/>
<path d="M14.38 4.44005C14.31 4.44005 14.24 4.43005 14.17 4.41005C13.88 4.33005 13.6 4.27005 13.33 4.23005C12.48 4.12005 11.66 4.18005 10.89 4.41005C10.61 4.50005 10.31 4.41005 10.12 4.20005C9.92999 3.99005 9.86999 3.69005 9.97999 3.42005C10.39 2.37005 11.39 1.68005 12.53 1.68005C13.67 1.68005 14.67 2.36005 15.08 3.42005C15.18 3.69005 15.13 3.99005 14.94 4.20005C14.79 4.36005 14.58 4.44005 14.38 4.44005Z" fill="#1A1A1A"/>
<path d="M12.52 23.3101C11.53 23.3101 10.57 22.9101 9.87 22.2101C9.17 21.5101 8.77 20.5501 8.77 19.5601H10.27C10.27 20.1501 10.51 20.7301 10.93 21.1501C11.35 21.5701 11.93 21.8101 12.52 21.8101C13.76 21.8101 14.77 20.8001 14.77 19.5601H16.27C16.27 21.6301 14.59 23.3101 12.52 23.3101Z" fill="#1A1A1A"/>
</svg>
