<svg width="29" height="25" viewBox="0 0 29 25" fill="none" xmlns="http://www.w3.org/2000/svg">
<path d="M14.5 13.25C10.8017 13.25 7.79167 10.67 7.79167 7.5C7.79167 4.33 10.8017 1.75 14.5 1.75C18.1983 1.75 21.2083 4.33 21.2083 7.5C21.2083 10.67 18.1983 13.25 14.5 13.25ZM14.5 3.25C11.77 3.25 9.54167 5.16 9.54167 7.5C9.54167 9.84 11.77 11.75 14.5 11.75C17.23 11.75 19.4583 9.84 19.4583 7.5C19.4583 5.16 17.23 3.25 14.5 3.25Z" fill="#1A1A1A"/>
<path d="M24.5218 23.25C24.0435 23.25 23.6468 22.91 23.6468 22.5C23.6468 19.05 19.5402 16.25 14.5002 16.25C9.46018 16.25 5.35352 19.05 5.35352 22.5C5.35352 22.91 4.95685 23.25 4.47852 23.25C4.00018 23.25 3.60352 22.91 3.60352 22.5C3.60352 18.23 8.49185 14.75 14.5002 14.75C20.5085 14.75 25.3968 18.23 25.3968 22.5C25.3968 22.91 25.0002 23.25 24.5218 23.25Z" fill="#1A1A1A"/>
</svg>
