<svg width="52" height="52" viewBox="0 0 52 52" fill="none" xmlns="http://www.w3.org/2000/svg">
<path d="M26 25.9997C31.9831 25.9997 36.8333 21.1494 36.8333 15.1663C36.8333 9.18326 31.9831 4.33301 26 4.33301C20.0169 4.33301 15.1667 9.18326 15.1667 15.1663C15.1667 21.1494 20.0169 25.9997 26 25.9997Z" stroke="#1A1A1A" stroke-width="2" stroke-linecap="round" stroke-linejoin="round"/>
<path d="M7.38834 47.6667C7.38834 39.2817 15.73 32.5 26 32.5C28.08 32.5 30.095 32.7817 31.98 33.3017" stroke="#1A1A1A" stroke-width="2" stroke-linecap="round" stroke-linejoin="round"/>
<path d="M47.6667 38.9997C47.6667 39.693 47.58 40.3647 47.4067 41.0147C47.2117 41.8813 46.865 42.7263 46.41 43.463C44.915 45.9763 42.1633 47.6663 39 47.6663C36.7683 47.6663 34.7533 46.8213 33.2367 45.4346C32.5867 44.8713 32.0233 44.1997 31.59 43.463C30.7883 42.163 30.3333 40.6247 30.3333 38.9997C30.3333 36.6597 31.265 34.5147 32.7817 32.9547C34.3633 31.3297 36.5733 30.333 39 30.333C41.5567 30.333 43.875 31.438 45.435 33.2147C46.8217 34.753 47.6667 36.7897 47.6667 38.9997Z" stroke="#1A1A1A" stroke-width="2" stroke-miterlimit="10" stroke-linecap="round" stroke-linejoin="round"/>
<path d="M42.2283 38.9561H35.7717" stroke="#1A1A1A" stroke-width="2" stroke-miterlimit="10" stroke-linecap="round" stroke-linejoin="round"/>
<path d="M39 35.793V42.2713" stroke="#1A1A1A" stroke-width="2" stroke-miterlimit="10" stroke-linecap="round" stroke-linejoin="round"/>
</svg>
