<svg width="52" height="52" viewBox="0 0 52 52" fill="none" xmlns="http://www.w3.org/2000/svg">
<path d="M43.0299 17.5284C43.0299 18.4384 42.9649 19.3268 42.8566 20.1718C41.8599 19.7384 40.7766 19.5001 39.6283 19.5001C36.9849 19.5001 34.6449 20.7784 33.1933 22.7284C31.7199 20.7784 29.3799 19.5001 26.7366 19.5001C22.2949 19.5001 18.6983 23.1184 18.6983 27.6034C18.6983 33.4101 21.7749 37.8517 25.1983 40.8634C25.0899 40.9284 24.9816 40.9501 24.8733 40.9935C24.2233 41.2318 23.1399 41.2318 22.4899 40.9935C16.8783 39.0651 4.33325 31.0918 4.33325 17.5284C4.33325 11.5484 9.14323 6.7168 15.0799 6.7168C18.6116 6.7168 21.7316 8.40678 23.6816 11.0284C25.6532 8.40678 28.7732 6.7168 32.2832 6.7168C38.2199 6.7168 43.0299 11.5484 43.0299 17.5284Z" stroke="#1A1A1A" stroke-width="2" stroke-linecap="round" stroke-linejoin="round"/>
<path d="M47.6663 27.6033C47.6663 37.7433 38.2847 43.7233 34.0813 45.1533C33.583 45.3267 32.7813 45.3267 32.283 45.1533C30.4846 44.5467 27.733 43.095 25.198 40.8633C21.7747 37.8516 18.698 33.41 18.698 27.6033C18.698 23.1183 22.2946 19.5 26.7363 19.5C29.3796 19.5 31.7197 20.7783 33.193 22.7283C34.6447 20.7783 36.9847 19.5 39.628 19.5C40.7763 19.5 41.8597 19.7383 42.8563 20.1717C45.6947 21.4283 47.6663 24.2666 47.6663 27.6033Z" stroke="#1A1A1A" stroke-width="2" stroke-linecap="round" stroke-linejoin="round"/>
</svg>
