<svg width="52" height="52" viewBox="0 0 52 52" fill="none" xmlns="http://www.w3.org/2000/svg">
<path d="M26 47.6663C37.9662 47.6663 47.6667 37.9658 47.6667 25.9997C47.6667 14.0335 37.9662 4.33301 26 4.33301C14.0338 4.33301 4.33333 14.0335 4.33333 25.9997C4.33333 37.9658 14.0338 47.6663 26 47.6663Z" stroke="#1A1A1A" stroke-width="2" stroke-linecap="round" stroke-linejoin="round"/>
<path d="M26.715 37.8081C26.325 37.9381 25.6533 37.9381 25.2633 37.8081C21.8833 36.6597 14.3 31.828 14.3 23.638C14.3 20.0197 17.2033 17.0947 20.8 17.0947C22.9233 17.0947 24.8083 18.113 26 19.7164C27.17 18.1347 29.0767 17.0947 31.2 17.0947C34.7967 17.0947 37.7 20.0197 37.7 23.638C37.7 31.828 30.1167 36.6597 26.715 37.8081Z" stroke="#1A1A1A" stroke-width="2" stroke-linecap="round" stroke-linejoin="round"/>
</svg>
