<svg width="52" height="52" viewBox="0 0 52 52" fill="none" xmlns="http://www.w3.org/2000/svg">
<path d="M39 15.513C38.87 15.4913 38.7183 15.4913 38.5883 15.513C35.5983 15.4047 33.215 12.9563 33.215 9.92301C33.215 6.82468 35.7067 4.33301 38.805 4.33301C41.9033 4.33301 44.395 6.84635 44.395 9.92301C44.3733 12.9563 41.99 15.4047 39 15.513Z" stroke="#1A1A1A" stroke-width="2" stroke-linecap="round" stroke-linejoin="round"/>
<path d="M36.7683 31.2867C39.7366 31.785 43.0083 31.265 45.305 29.7267C48.36 27.69 48.36 24.3534 45.305 22.3167C42.9867 20.7784 39.6716 20.2583 36.7033 20.7783" stroke="#1A1A1A" stroke-width="2" stroke-linecap="round" stroke-linejoin="round"/>
<path d="M12.935 15.513C13.065 15.4913 13.2166 15.4913 13.3466 15.513C16.3366 15.4047 18.72 12.9563 18.72 9.92301C18.72 6.82468 16.2283 4.33301 13.13 4.33301C10.0316 4.33301 7.53998 6.84635 7.53998 9.92301C7.56164 12.9563 9.94498 15.4047 12.935 15.513Z" stroke="#1A1A1A" stroke-width="2" stroke-linecap="round" stroke-linejoin="round"/>
<path d="M15.1667 31.2867C12.1983 31.785 8.92666 31.265 6.63 29.7267C3.575 27.69 3.575 24.3534 6.63 22.3167C8.94833 20.7784 12.2633 20.2583 15.2317 20.7783" stroke="#1A1A1A" stroke-width="2" stroke-linecap="round" stroke-linejoin="round"/>
<path d="M26 31.6986C25.87 31.6769 25.7183 31.6769 25.5883 31.6986C22.5983 31.5902 20.215 29.1419 20.215 26.1086C20.215 23.0102 22.7067 20.5186 25.805 20.5186C28.9033 20.5186 31.395 23.0319 31.395 26.1086C31.3733 29.1419 28.99 31.6119 26 31.6986Z" stroke="#1A1A1A" stroke-width="2" stroke-linecap="round" stroke-linejoin="round"/>
<path d="M19.695 38.5233C16.64 40.5599 16.64 43.8966 19.695 45.9333C23.1617 48.2516 28.8383 48.2516 32.305 45.9333C35.36 43.8966 35.36 40.5599 32.305 38.5233C28.86 36.2266 23.1617 36.2266 19.695 38.5233Z" stroke="#1A1A1A" stroke-width="2" stroke-linecap="round" stroke-linejoin="round"/>
</svg>
