<svg width="30" height="30" viewBox="0 0 30 30" fill="none" xmlns="http://www.w3.org/2000/svg">
<path d="M15.025 25.6629C12.1125 25.6629 9.20002 25.2004 6.43752 24.2754C5.38752 23.9129 4.58752 23.1754 4.23752 22.2129C3.87502 21.2504 4.00002 20.1879 4.57502 19.2379L6.01252 16.8504C6.31252 16.3504 6.58752 15.3504 6.58752 14.7629V11.1504C6.58752 6.50039 10.375 2.71289 15.025 2.71289C19.675 2.71289 23.4625 6.50039 23.4625 11.1504V14.7629C23.4625 15.3379 23.7375 16.3504 24.0375 16.8629L25.4625 19.2379C26 20.1379 26.1 21.2254 25.7375 22.2129C25.375 23.2004 24.5875 23.9504 23.6 24.2754C20.85 25.2004 17.9375 25.6629 15.025 25.6629ZM15.025 4.58789C11.4125 4.58789 8.46252 7.52539 8.46252 11.1504V14.7629C8.46252 15.6754 8.08752 17.0254 7.62502 17.8129L6.18752 20.2004C5.91252 20.6629 5.83752 21.1504 6.00002 21.5629C6.15002 21.9879 6.52502 22.3129 7.03752 22.4879C12.2625 24.2379 17.8 24.2379 23.025 22.4879C23.475 22.3379 23.825 22.0004 23.9875 21.5504C24.15 21.1004 24.1125 20.6129 23.8625 20.2004L22.425 17.8129C21.95 17.0004 21.5875 15.6629 21.5875 14.7504V11.1504C21.5875 7.52539 18.65 4.58789 15.025 4.58789Z" fill="#1A1A1A"/>
<path d="M17.35 4.92461C17.2625 4.92461 17.175 4.91211 17.0875 4.88711C16.725 4.78711 16.375 4.71211 16.0375 4.66211C14.975 4.52461 13.95 4.59961 12.9875 4.88711C12.6375 4.99961 12.2625 4.88711 12.025 4.62461C11.7875 4.36211 11.7125 3.98711 11.85 3.64961C12.3625 2.33711 13.6125 1.47461 15.0375 1.47461C16.4625 1.47461 17.7125 2.32461 18.225 3.64961C18.35 3.98711 18.2875 4.36211 18.05 4.62461C17.8625 4.82461 17.6 4.92461 17.35 4.92461Z" fill="#1A1A1A"/>
<path d="M15.025 28.5127C13.7875 28.5127 12.5875 28.0127 11.7125 27.1377C10.8375 26.2627 10.3375 25.0627 10.3375 23.8252H12.2125C12.2125 24.5627 12.5125 25.2877 13.0375 25.8127C13.5625 26.3377 14.2875 26.6377 15.025 26.6377C16.575 26.6377 17.8375 25.3752 17.8375 23.8252H19.7125C19.7125 26.4127 17.6125 28.5127 15.025 28.5127Z" fill="#1A1A1A"/>
</svg>
