<svg width="52" height="52" viewBox="0 0 52 52" fill="none" xmlns="http://www.w3.org/2000/svg">
<path d="M41.1667 17.333C44.7565 17.333 47.6667 14.4229 47.6667 10.833C47.6667 7.24316 44.7565 4.33301 41.1667 4.33301C37.5768 4.33301 34.6667 7.24316 34.6667 10.833C34.6667 14.4229 37.5768 17.333 41.1667 17.333Z" stroke="#1A1A1A" stroke-width="2" stroke-linecap="round" stroke-linejoin="round"/>
<path d="M30.3333 4.33301H19.5C8.66668 4.33301 4.33334 8.66634 4.33334 19.4997V32.4997C4.33334 43.333 8.66668 47.6663 19.5 47.6663H32.5C43.3333 47.6663 47.6667 43.333 47.6667 32.4997V21.6663" stroke="#1A1A1A" stroke-width="2" stroke-linecap="round" stroke-linejoin="round"/>
<path d="M14.755 32.3484C13.9967 29.9651 14.885 26.9967 17.3983 26.1951C18.72 25.7617 20.345 26.1301 21.2767 27.4084C22.1433 26.0867 23.8333 25.7834 25.1333 26.1951C27.6467 26.9967 28.535 29.9651 27.7767 32.3484C26.585 36.1401 22.425 38.1117 21.2767 38.1117C20.1067 38.0901 15.99 36.1617 14.755 32.3484Z" stroke="#1A1A1A" stroke-width="2" stroke-linecap="round" stroke-linejoin="round"/>
</svg>
