<svg width="85" height="67" viewBox="0 0 85 67" fill="none" xmlns="http://www.w3.org/2000/svg">
<path d="M2 65V61.2941C2 46.9671 13.6143 35.3529 27.9412 35.3529C42.2681 35.3529 53.8824 46.9671 53.8824 61.2941V65" stroke="#1A1A1A" stroke-width="2.5" stroke-linecap="round"/>
<path d="M46.4706 42.7647C46.4706 32.5313 54.7666 24.2353 65 24.2353C75.2334 24.2353 83.5294 32.5313 83.5294 42.7647V44.6176" stroke="#1A1A1A" stroke-width="2.5" stroke-linecap="round"/>
<path d="M27.9412 35.3529C36.1278 35.3529 42.7647 28.7161 42.7647 20.5294C42.7647 12.3426 36.1278 5.70587 27.9412 5.70587C19.7544 5.70587 13.1176 12.3426 13.1176 20.5294C13.1176 28.7161 19.7544 35.3529 27.9412 35.3529Z" stroke="#1A1A1A" stroke-width="2.5" stroke-linecap="round" stroke-linejoin="round"/>
<path d="M65 24.2353C71.1403 24.2353 76.1177 19.2577 76.1177 13.1176C76.1177 6.97756 71.1403 2 65 2C58.8597 2 53.8824 6.97756 53.8824 13.1176C53.8824 19.2577 58.8597 24.2353 65 24.2353Z" stroke="#1A1A1A" stroke-width="2.5" stroke-linecap="round" stroke-linejoin="round"/>
</svg>
