<svg width="52" height="41" viewBox="0 0 52 41" fill="none" xmlns="http://www.w3.org/2000/svg">
<path d="M2 39.0908V36.909C2 28.474 8.83784 21.6362 17.2727 21.6362C25.7076 21.6362 32.5455 28.474 32.5455 36.909V39.0908" stroke="#1A1A1A" stroke-width="2.5" stroke-linecap="round"/>
<path d="M28.1818 25.9999C28.1818 19.975 33.066 15.0908 39.0909 15.0908C45.1158 15.0908 50 19.975 50 25.9999V27.0908" stroke="#1A1A1A" stroke-width="2.5" stroke-linecap="round"/>
<path d="M17.2727 21.6362C22.0926 21.6362 26 17.7288 26 12.9089C26 8.08897 22.0926 4.18164 17.2727 4.18164C12.4528 4.18164 8.54544 8.08897 8.54544 12.9089C8.54544 17.7288 12.4528 21.6362 17.2727 21.6362Z" stroke="#1A1A1A" stroke-width="2.5" stroke-linecap="round" stroke-linejoin="round"/>
<path d="M39.0909 15.0909C42.706 15.0909 45.6364 12.1604 45.6364 8.54545C45.6364 4.93051 42.706 2 39.0909 2C35.4759 2 32.5455 4.93051 32.5455 8.54545C32.5455 12.1604 35.4759 15.0909 39.0909 15.0909Z" stroke="#1A1A1A" stroke-width="2.5" stroke-linecap="round" stroke-linejoin="round"/>
</svg>
